<svg width="106" height="30" viewBox="0 0 106 30" fill="none" xmlns="http://www.w3.org/2000/svg">
<path d="M104.973 26.9613C104.973 28.3171 103.849 29.4333 102.436 29.4333H3.04119C1.62763 29.4333 0.5 28.3162 0.5 26.9613V3.25979C0.5 1.90469 1.62858 0.783813 3.04119 0.783813H102.435C103.848 0.783813 104.972 1.90369 104.972 3.25979L104.973 26.9613Z" stroke="#7789B5"/>
<path d="M23.2102 14.9422C23.1873 12.4596 25.2952 11.2517 25.3915 11.1955C24.1978 9.49849 22.3475 9.26663 21.6972 9.24814C20.1432 9.08869 18.6358 10.1548 17.8441 10.1548C17.0367 10.1548 15.8176 9.26355 14.5038 9.28974C12.813 9.31516 11.2313 10.2696 10.3638 11.7516C8.57358 14.7736 9.90878 19.2144 11.624 21.657C12.482 22.8533 13.4846 24.189 14.7969 24.142C16.0807 24.0904 16.5603 23.344 18.1096 23.344C19.6447 23.344 20.095 24.142 21.4334 24.112C22.8112 24.0904 23.6787 22.9103 24.5067 21.7032C25.4982 20.3321 25.8964 18.9817 25.9122 18.9124C25.8798 18.9016 23.2363 17.9179 23.2102 14.9422Z" fill="#7789B5"/>
<path d="M20.682 7.64128C21.3725 6.79934 21.845 5.65389 21.7138 4.4915C20.7144 4.53464 19.4645 5.16552 18.7448 5.98898C18.108 6.71461 17.5392 7.90396 17.6861 9.02244C18.8088 9.1041 19.9615 8.47013 20.682 7.64128Z" fill="#7789B5"/>
<path d="M41.7904 23.9717H39.9961L39.0133 20.9606H35.5971L34.6609 23.9717H32.9141L36.2987 13.7205H38.3892L41.7904 23.9717ZM38.717 19.6973L37.8282 17.0205C37.7342 16.747 37.558 16.103 37.2981 15.0893H37.2665C37.163 15.5253 36.9963 16.1693 36.7672 17.0205L35.8942 19.6973H38.717Z" fill="#7789B5"/>
<path d="M50.4943 20.1839C50.4943 21.4411 50.1459 22.4348 49.449 23.1642C48.8249 23.8136 48.0498 24.1379 47.1247 24.1379C46.1261 24.1379 45.4087 23.7882 44.9718 23.0887H44.9402V26.9827H43.2558V19.0123C43.2558 18.222 43.2344 17.4108 43.1934 16.5789H44.6747L44.7687 17.7505H44.8003C45.3621 16.8678 46.2145 16.4271 47.3585 16.4271C48.2529 16.4271 48.9995 16.7715 49.5968 17.4609C50.1956 18.1511 50.4943 19.0585 50.4943 20.1839ZM48.7783 20.244C48.7783 19.5245 48.6124 18.9314 48.279 18.4646C47.9147 17.9778 47.4257 17.7343 46.8126 17.7343C46.397 17.7343 46.0194 17.8699 45.682 18.1372C45.3439 18.4068 45.1227 18.7589 45.0192 19.1949C44.967 19.3982 44.941 19.5646 44.941 19.6955V20.928C44.941 21.4657 45.11 21.9194 45.4482 22.2899C45.7863 22.6605 46.2256 22.8453 46.766 22.8453C47.4004 22.8453 47.8942 22.6065 48.2474 22.1305C48.6013 21.6537 48.7783 21.0251 48.7783 20.244Z" fill="#7789B5"/>
<path d="M59.2142 20.1839C59.2142 21.4411 58.8658 22.4348 58.1682 23.1642C57.5448 23.8136 56.7698 24.1379 55.8446 24.1379C54.846 24.1379 54.1286 23.7882 53.6925 23.0887H53.6609V26.9827H51.9765V19.0123C51.9765 18.222 51.9551 17.4108 51.9141 16.5789H53.3954L53.4894 17.7505H53.521C54.082 16.8678 54.9345 16.4271 56.0793 16.4271C56.9728 16.4271 57.7194 16.7715 58.3183 17.4609C58.9148 18.1511 59.2142 19.0585 59.2142 20.1839ZM57.4982 20.244C57.4982 19.5245 57.3315 18.9314 56.9981 18.4646C56.6339 17.9778 56.1464 17.7343 55.5325 17.7343C55.1162 17.7343 54.7393 17.8699 54.4012 18.1372C54.063 18.4068 53.8426 18.7589 53.7391 19.1949C53.6877 19.3982 53.6609 19.5646 53.6609 19.6955V20.928C53.6609 21.4657 53.83 21.9194 54.1665 22.2899C54.5047 22.6597 54.9439 22.8453 55.4859 22.8453C56.1203 22.8453 56.6141 22.6065 56.9673 22.1305C57.3212 21.6537 57.4982 21.0251 57.4982 20.244Z" fill="#7789B5"/>
<path d="M68.9641 21.096C68.9641 21.968 68.6536 22.6774 68.0303 23.2251C67.3453 23.8237 66.3917 24.1225 65.1663 24.1225C64.035 24.1225 63.128 23.9099 62.4414 23.484L62.8317 22.1151C63.5712 22.5511 64.3826 22.7699 65.2667 22.7699C65.9011 22.7699 66.3949 22.6297 66.7496 22.3508C67.1028 22.072 67.2789 21.6976 67.2789 21.2308C67.2789 20.8148 67.1336 20.4644 66.842 20.1801C66.5521 19.8959 66.0678 19.6317 65.3915 19.3875C63.5506 18.7181 62.631 17.7375 62.631 16.448C62.631 15.6053 62.9534 14.9143 63.5988 14.3766C64.242 13.8382 65.1 13.5693 66.1728 13.5693C67.1296 13.5693 67.9244 13.7319 68.5588 14.0562L68.1377 15.395C67.5452 15.0807 66.8752 14.9235 66.1254 14.9235C65.5329 14.9235 65.0699 15.066 64.7381 15.3495C64.4576 15.6029 64.317 15.9118 64.317 16.2777C64.317 16.6829 64.4774 17.018 64.7997 17.2814C65.0802 17.5249 65.5898 17.7883 66.3293 18.0725C67.2339 18.4277 67.8983 18.8429 68.3258 19.3189C68.7516 19.7934 68.9641 20.3873 68.9641 21.096Z" fill="#7789B5"/>
<path d="M74.5331 17.8122H72.6765V21.4011C72.6765 22.3139 73.0036 22.7699 73.6593 22.7699C73.9603 22.7699 74.21 22.7445 74.4075 22.6937L74.4541 23.9408C74.1223 24.0617 73.6854 24.1226 73.1442 24.1226C72.479 24.1226 71.9591 23.9246 71.5838 23.5295C71.2101 23.1335 71.0221 22.4695 71.0221 21.5367V17.8107H69.916V16.5782H71.0221V15.2248L72.6765 14.7379V16.5782H74.5331V17.8122Z" fill="#7789B5"/>
<path d="M82.9101 20.2143C82.9101 21.3505 82.5767 22.2834 81.9115 23.0128C81.2139 23.7639 80.2879 24.1383 79.1337 24.1383C78.0213 24.1383 77.1356 23.7785 76.4751 23.0591C75.8146 22.3396 75.4844 21.4314 75.4844 20.3368C75.4844 19.1914 75.8241 18.2531 76.5059 17.5236C77.1862 16.7934 78.1042 16.4283 79.2585 16.4283C80.3709 16.4283 81.266 16.788 81.9415 17.5082C82.5878 18.2069 82.9101 19.1089 82.9101 20.2143ZM81.1625 20.2675C81.1625 19.5858 81.0132 19.0011 80.7106 18.5135C80.3574 17.9234 79.8526 17.6292 79.1984 17.6292C78.5214 17.6292 78.007 17.9242 77.6539 18.5135C77.3513 19.0019 77.202 19.5958 77.202 20.2983C77.202 20.98 77.3513 21.5647 77.6539 22.0515C78.0181 22.6416 78.5269 22.9358 79.1834 22.9358C79.8265 22.9358 80.3314 22.6354 80.6956 22.0361C81.0061 21.5393 81.1625 20.9484 81.1625 20.2675Z" fill="#7789B5"/>
<path d="M88.3843 18.0232C88.2176 17.9932 88.0398 17.9778 87.8534 17.9778C87.2608 17.9778 86.8026 18.1958 86.4803 18.6325C86.1998 19.0177 86.0592 19.5045 86.0592 20.0923V23.9708H84.3755L84.3913 18.9068C84.3913 18.0548 84.37 17.2791 84.3281 16.5797H85.7953L85.8569 17.9939H85.9035C86.0813 17.5079 86.3617 17.1166 86.7457 16.8231C87.121 16.5589 87.5263 16.4271 87.9632 16.4271C88.1188 16.4271 88.2595 16.4379 88.3843 16.4572V18.0232Z" fill="#7789B5"/>
<path d="M95.9173 19.9249C95.9173 20.2191 95.8975 20.4672 95.8557 20.6698H90.8025C90.8222 21.4 91.0663 21.9585 91.5356 22.3436C91.9615 22.688 92.5122 22.8605 93.1884 22.8605C93.9366 22.8605 94.6192 22.7442 95.2331 22.5108L95.497 23.6508C94.7796 23.9559 93.9327 24.1076 92.9554 24.1076C91.7798 24.1076 90.857 23.7702 90.1854 23.0962C89.5155 22.4222 89.1797 21.5171 89.1797 20.3817C89.1797 19.267 89.4918 18.3388 90.1167 17.5985C90.7709 16.8082 91.6549 16.413 92.7673 16.413C93.86 16.413 94.6872 16.8082 95.2489 17.5985C95.6937 18.2263 95.9173 19.0028 95.9173 19.9249ZM94.3111 19.4989C94.3222 19.0121 94.2124 18.5915 93.984 18.2364C93.6925 17.7796 93.2445 17.5516 92.6417 17.5516C92.0911 17.5516 91.6431 17.7742 91.301 18.2209C91.0205 18.5761 90.8538 19.002 90.8025 19.4981H94.3111V19.4989Z" fill="#7789B5"/>
<path d="M38.1598 7.41382C38.1598 8.32047 37.8809 9.00296 37.324 9.4613C36.808 9.88419 36.0749 10.096 35.1252 10.096C34.6543 10.096 34.2514 10.076 33.9141 10.0359V5.0821C34.3541 5.01277 34.8282 4.97734 35.3401 4.97734C36.2447 4.97734 36.9266 5.16915 37.3864 5.55276C37.9015 5.98644 38.1598 6.60654 38.1598 7.41382ZM37.2868 7.43616C37.2868 6.84842 37.1272 6.39779 36.808 6.0835C36.4889 5.76999 36.0227 5.61284 35.4089 5.61284C35.1481 5.61284 34.9261 5.62979 34.742 5.66522V9.43125C34.844 9.44666 35.0304 9.45359 35.3014 9.45359C35.935 9.45359 36.4241 9.28181 36.7685 8.93826C37.113 8.5947 37.2868 8.094 37.2868 7.43616Z" fill="#7789B5"/>
<path d="M42.7883 8.20626C42.7883 8.76473 42.6248 9.22229 42.2977 9.58126C41.9548 9.95023 41.5005 10.1343 40.9333 10.1343C40.3865 10.1343 39.9512 9.95794 39.6265 9.6036C39.3026 9.25003 39.1406 8.80402 39.1406 8.26634C39.1406 7.70402 39.3073 7.24261 39.6423 6.88441C39.9773 6.52622 40.4276 6.34674 40.9949 6.34674C41.5416 6.34674 41.9809 6.52314 42.3135 6.87671C42.6295 7.22027 42.7883 7.66396 42.7883 8.20626ZM41.9295 8.23245C41.9295 7.89737 41.8553 7.61004 41.7075 7.37048C41.5337 7.08084 41.2864 6.93602 40.9649 6.93602C40.6323 6.93602 40.3794 7.08084 40.2056 7.37048C40.0571 7.61004 39.9836 7.90199 39.9836 8.24709C39.9836 8.58217 40.0579 8.86949 40.2056 9.10906C40.385 9.39869 40.6346 9.54351 40.957 9.54351C41.273 9.54351 41.5211 9.39638 41.6996 9.10136C41.8529 8.85717 41.9295 8.56753 41.9295 8.23245Z" fill="#7789B5"/>
<path d="M48.9957 6.42062L47.8304 10.0518H47.0719L46.5892 8.47503C46.4667 8.0814 46.3672 7.69009 46.2898 7.30185H46.2747C46.2028 7.70087 46.1033 8.09142 45.9753 8.47503L45.4626 10.0518H44.6954L43.5996 6.42062H44.4505L44.8716 8.14688C44.9735 8.55514 45.0573 8.94415 45.1244 9.31235H45.1394C45.2011 9.00885 45.303 8.62216 45.4468 8.15458L45.9753 6.42139H46.65L47.1564 8.11761C47.2789 8.53126 47.3785 8.92951 47.4551 9.31312H47.478C47.5341 8.93953 47.6186 8.54128 47.7308 8.11761L48.1827 6.42139H48.9957V6.42062Z" fill="#7789B5"/>
<path d="M53.2879 10.052H52.46V7.97214C52.46 7.33125 52.2103 7.0108 51.7094 7.0108C51.4637 7.0108 51.2654 7.09861 51.1113 7.27501C50.9589 7.45141 50.8814 7.6594 50.8814 7.89742V10.0512H50.0535V7.45835C50.0535 7.13944 50.0432 6.79357 50.0234 6.4192H50.7511L50.7898 6.98692H50.8127C50.9091 6.81052 51.0529 6.66493 51.2417 6.54861C51.4661 6.41304 51.7173 6.34448 51.9923 6.34448C52.3399 6.34448 52.629 6.45387 52.8589 6.6734C53.1449 6.94224 53.2879 7.34357 53.2879 7.87662V10.052Z" fill="#7789B5"/>
<path d="M55.5713 10.0514H54.7441V4.754H55.5713V10.0514Z" fill="#7789B5"/>
<path d="M60.4465 8.20626C60.4465 8.76473 60.283 9.22229 59.9559 9.58126C59.613 9.95023 59.1579 10.1343 58.5915 10.1343C58.044 10.1343 57.6086 9.95794 57.2847 9.6036C56.9608 9.25003 56.7988 8.80402 56.7988 8.26634C56.7988 7.70402 56.9655 7.24261 57.3005 6.88441C57.6355 6.52622 58.0858 6.34674 58.6523 6.34674C59.1998 6.34674 59.6383 6.52314 59.9717 6.87671C60.2877 7.22027 60.4465 7.66396 60.4465 8.20626ZM59.5869 8.23245C59.5869 7.89737 59.5127 7.61004 59.3649 7.37048C59.1919 7.08084 58.9438 6.93602 58.6231 6.93602C58.2897 6.93602 58.0368 7.08084 57.8638 7.37048C57.7153 7.61004 57.6418 7.90199 57.6418 8.24709C57.6418 8.58217 57.7161 8.86949 57.8638 9.10906C58.0432 9.39869 58.2928 9.54351 58.6152 9.54351C58.9312 9.54351 59.1785 9.39638 59.357 9.10136C59.5111 8.85717 59.5869 8.56753 59.5869 8.23245Z" fill="#7789B5"/>
<path d="M64.454 10.0519H63.7106L63.6489 9.63364H63.626C63.3716 9.96718 63.009 10.1343 62.5381 10.1343C62.1865 10.1343 61.9021 10.0242 61.688 9.80542C61.4937 9.60668 61.3965 9.35941 61.3965 9.06592C61.3965 8.62223 61.5861 8.28406 61.9677 8.04989C62.3485 7.81571 62.8842 7.70094 63.5739 7.70633V7.63854C63.5739 7.16018 63.3163 6.92139 62.8004 6.92139C62.433 6.92139 62.1091 7.01152 61.8294 7.19023L61.6612 6.66026C62.0072 6.4515 62.4346 6.34674 62.9387 6.34674C63.912 6.34674 64.4003 6.84744 64.4003 7.84884V9.18609C64.4003 9.5489 64.4185 9.83777 64.454 10.0519ZM63.5944 8.80402V8.24401C62.6811 8.2286 62.2245 8.47279 62.2245 8.9758C62.2245 9.16529 62.2766 9.30703 62.3833 9.40178C62.4899 9.49652 62.6258 9.54351 62.7878 9.54351C62.9695 9.54351 63.1394 9.48728 63.2942 9.37559C63.4498 9.26312 63.5454 9.12061 63.581 8.94575C63.5897 8.90647 63.5944 8.85871 63.5944 8.80402Z" fill="#7789B5"/>
<path d="M69.1568 10.0514H68.4221L68.3833 9.46827H68.3604C68.1258 9.91197 67.726 10.1338 67.1643 10.1338C66.7155 10.1338 66.3418 9.96204 66.0456 9.61848C65.7493 9.27493 65.6016 8.82892 65.6016 8.28123C65.6016 7.69349 65.7619 7.21744 66.0843 6.85385C66.3964 6.51492 66.7787 6.34545 67.2338 6.34545C67.7339 6.34545 68.0839 6.50953 68.283 6.83845H68.2988V4.754H69.1276V9.07311C69.1276 9.42668 69.1371 9.75252 69.1568 10.0514ZM68.2988 8.52003V7.91457C68.2988 7.8098 68.2909 7.72507 68.2759 7.66036C68.2293 7.46625 68.129 7.30294 67.9765 7.17122C67.8224 7.0395 67.6367 6.97325 67.4226 6.97325C67.1137 6.97325 66.872 7.09265 66.6942 7.33221C66.518 7.57178 66.4287 7.87759 66.4287 8.25119C66.4287 8.61015 66.5133 8.90133 66.6831 9.12549C66.8625 9.36428 67.1042 9.48368 67.4068 9.48368C67.6786 9.48368 67.8959 9.38431 68.061 9.1848C68.2206 9.0007 68.2988 8.77885 68.2988 8.52003Z" fill="#7789B5"/>
<path d="M76.2395 8.20626C76.2395 8.76473 76.0759 9.22229 75.7489 9.58126C75.406 9.95023 74.9525 10.1343 74.3844 10.1343C73.8385 10.1343 73.4032 9.95794 73.0777 9.6036C72.7538 9.25003 72.5918 8.80402 72.5918 8.26634C72.5918 7.70402 72.7585 7.24261 73.0935 6.88441C73.4285 6.52622 73.8788 6.34674 74.4469 6.34674C74.9928 6.34674 75.4328 6.52314 75.7647 6.87671C76.0807 7.22027 76.2395 7.66396 76.2395 8.20626ZM75.3815 8.23245C75.3815 7.89737 75.3072 7.61004 75.1595 7.37048C74.9849 7.08084 74.7384 6.93602 74.416 6.93602C74.0842 6.93602 73.8314 7.08084 73.6568 7.37048C73.5083 7.61004 73.4348 7.90199 73.4348 8.24709C73.4348 8.58217 73.5091 8.86949 73.6568 9.10906C73.8361 9.39869 74.0858 9.54351 74.4081 9.54351C74.7242 9.54351 74.973 9.39638 75.1516 9.10136C75.3041 8.85717 75.3815 8.56753 75.3815 8.23245Z" fill="#7789B5"/>
<path d="M80.6915 10.052H79.8643V7.97214C79.8643 7.33125 79.6146 7.0108 79.1129 7.0108C78.8672 7.0108 78.6689 7.09861 78.5156 7.27501C78.3624 7.45141 78.2857 7.6594 78.2857 7.89742V10.0512H77.457V7.45835C77.457 7.13944 77.4475 6.79357 77.4277 6.4192H78.1546L78.1933 6.98692H78.2162C78.3134 6.81052 78.4572 6.66493 78.6452 6.54861C78.8704 6.41304 79.1208 6.34448 79.3966 6.34448C79.7434 6.34448 80.0325 6.45387 80.2625 6.6734C80.5492 6.94224 80.6915 7.34357 80.6915 7.87662V10.052Z" fill="#7789B5"/>
<path d="M86.2624 7.02443H85.3507V8.78843C85.3507 9.23675 85.5126 9.46091 85.8334 9.46091C85.9819 9.46091 86.1052 9.44858 86.2023 9.42316L86.2237 10.0356C86.0601 10.0956 85.8452 10.1257 85.5806 10.1257C85.2535 10.1257 84.9991 10.0286 84.815 9.83451C84.6301 9.64039 84.5385 9.31378 84.5385 8.85545V7.02443H83.9941V6.41974H84.5385V5.75419L85.3499 5.5154V6.41897H86.2616V7.02443H86.2624Z" fill="#7789B5"/>
<path d="M90.6466 10.0514H89.8178V7.98697C89.8178 7.33607 89.5682 7.01023 89.0681 7.01023C88.6841 7.01023 88.4218 7.19895 88.278 7.5764C88.2535 7.65574 88.2393 7.7528 88.2393 7.86681V10.0506H87.4121V4.754H88.2393V6.94244H88.2551C88.5158 6.54419 88.8895 6.34545 89.3738 6.34545C89.7167 6.34545 90.0003 6.45483 90.2255 6.67437C90.506 6.94783 90.6466 7.35455 90.6466 7.89223V10.0514Z" fill="#7789B5"/>
<path d="M95.1686 8.06413C95.1686 8.20895 95.1575 8.33066 95.1377 8.43003H92.6546C92.6657 8.78899 92.7842 9.06245 93.0141 9.25195C93.2242 9.42141 93.4952 9.50615 93.827 9.50615C94.1944 9.50615 94.5294 9.44914 94.8312 9.33437L94.9608 9.89515C94.6076 10.0446 94.192 10.1193 93.7109 10.1193C93.1342 10.1193 92.6799 9.95369 92.3512 9.62246C92.021 9.29123 91.8574 8.84676 91.8574 8.28906C91.8574 7.74137 92.0099 7.28535 92.3172 6.92177C92.638 6.53353 93.0717 6.33942 93.6193 6.33942C94.1549 6.33942 94.5618 6.53353 94.8367 6.92177C95.0587 7.22989 95.1686 7.61119 95.1686 8.06413ZM94.3785 7.85538C94.3848 7.61581 94.3303 7.40937 94.2181 7.23528C94.0743 7.01112 93.8555 6.89866 93.5592 6.89866C93.289 6.89866 93.0686 7.00804 92.9003 7.22758C92.7628 7.40244 92.6815 7.61119 92.6546 7.85538H94.3785Z" fill="#7789B5"/>
</svg>
