<svg width="20" height="18" viewBox="0 0 20 18" fill="none" xmlns="http://www.w3.org/2000/svg">
<path d="M20 6.10934C20 5.7831 19.8683 5.47023 19.6339 5.23955C19.3995 5.00887 19.0815 4.87927 18.75 4.87927C18.75 4.87927 18.2633 4.87927 18.2292 4.88583C17.606 3.74969 16.8921 2.66408 16.0942 1.63927C15.6778 1.10648 15.1008 0.716968 14.4458 0.526469C12.9783 -0.17549 7.02167 -0.17549 5.55417 0.526469C4.89917 0.716968 4.3222 1.10648 3.90583 1.63927C3.10787 2.66408 2.39396 3.74969 1.77083 4.88583C1.73667 4.87927 1.25 4.87927 1.25 4.87927C0.918479 4.87927 0.600537 5.00887 0.366116 5.23955C0.131696 5.47023 0 5.7831 0 6.10934L0 11.4396C0.000161115 12.0153 0.154258 12.5807 0.446811 13.0792C0.739365 13.5777 1.16007 13.9916 1.66667 14.2795V15.5399C1.66667 16.1923 1.93006 16.8181 2.3989 17.2794C2.86774 17.7408 3.50363 18 4.16667 18C4.82971 18 5.46559 17.7408 5.93443 17.2794C6.40327 16.8181 6.66667 16.1923 6.66667 15.5399V14.7198H13.3333V15.5399C13.3333 16.1923 13.5967 16.8181 14.0656 17.2794C14.5344 17.7408 15.1703 18 15.8333 18C16.4964 18 17.1323 17.7408 17.6011 17.2794C18.0699 16.8181 18.3333 16.1923 18.3333 15.5399V14.2795C18.8399 13.9916 19.2606 13.5777 19.5532 13.0792C19.8457 12.5807 19.9998 12.0153 20 11.4396V6.10934ZM5.22833 2.63727C5.43248 2.37819 5.71447 2.18908 6.03417 2.09686C7.3 1.481 12.7008 1.481 13.9658 2.09686C14.2855 2.18908 14.5675 2.37819 14.7717 2.63727C16.0372 4.27018 17.0794 6.0595 17.8717 7.95936C12.6515 7.20984 7.34847 7.20984 2.12833 7.95936C2.92058 6.0595 3.96282 4.27018 5.22833 2.63727ZM5 15.5399C5 15.7574 4.9122 15.9659 4.75592 16.1197C4.59964 16.2735 4.38768 16.3599 4.16667 16.3599C3.94565 16.3599 3.73369 16.2735 3.57741 16.1197C3.42113 15.9659 3.33333 15.7574 3.33333 15.5399V14.7198H5V15.5399ZM16.6667 15.5399C16.6667 15.7574 16.5789 15.9659 16.4226 16.1197C16.2663 16.2735 16.0543 16.3599 15.8333 16.3599C15.6123 16.3599 15.4004 16.2735 15.2441 16.1197C15.0878 15.9659 15 15.7574 15 15.5399V14.7198H16.6667V15.5399ZM16.6667 13.0797H3.33333C2.89131 13.0797 2.46738 12.9069 2.15482 12.5994C1.84226 12.2918 1.66667 11.8746 1.66667 11.4396V9.68228C4.42563 9.26723 7.2095 9.03246 10 8.9795C12.7905 9.03246 15.5744 9.26723 18.3333 9.68228V11.4396C18.3333 11.8746 18.1577 12.2918 17.8452 12.5994C17.5326 12.9069 17.1087 13.0797 16.6667 13.0797ZM5 11.4396C5 11.6571 4.9122 11.8657 4.75592 12.0195C4.59964 12.1733 4.38768 12.2597 4.16667 12.2597C3.94565 12.2597 3.73369 12.1733 3.57741 12.0195C3.42113 11.8657 3.33333 11.6571 3.33333 11.4396C3.33333 11.2221 3.42113 11.0136 3.57741 10.8598C3.73369 10.706 3.94565 10.6196 4.16667 10.6196C4.38768 10.6196 4.59964 10.706 4.75592 10.8598C4.9122 11.0136 5 11.2221 5 11.4396ZM16.6667 11.4396C16.6667 11.6571 16.5789 11.8657 16.4226 12.0195C16.2663 12.1733 16.0543 12.2597 15.8333 12.2597C15.6123 12.2597 15.4004 12.1733 15.2441 12.0195C15.0878 11.8657 15 11.6571 15 11.4396C15 11.2221 15.0878 11.0136 15.2441 10.8598C15.4004 10.706 15.6123 10.6196 15.8333 10.6196C16.0543 10.6196 16.2663 10.706 16.4226 10.8598C16.5789 11.0136 16.6667 11.2221 16.6667 11.4396Z" fill="#1D5DEB"/>
</svg>
