<svg width="20" height="21" viewBox="0 0 20 21" fill="none" xmlns="http://www.w3.org/2000/svg">
<path d="M20 17.5C20 18.9473 18.8296 20.125 17.3913 20.125V21H15.6522V20.125C14.2139 20.125 13.0435 18.9473 13.0435 17.5H14.7826C14.7826 17.9821 15.1722 18.375 15.6522 18.375H17.3913C17.8713 18.375 18.2609 17.9821 18.2609 17.5C18.2613 17.3403 18.2052 17.1856 18.1025 17.0637C17.9999 16.9419 17.8575 16.8608 17.7009 16.835L15.0565 16.3914C14.4933 16.2986 13.9813 16.0069 13.6124 15.5687C13.2434 15.1305 13.0418 14.5743 13.0435 14C13.0435 12.5527 14.2139 11.375 15.6522 11.375V10.5H17.3913V11.375C18.8296 11.375 20 12.5527 20 14H18.2609C18.2609 13.5179 17.8713 13.125 17.3913 13.125H15.6522C15.1722 13.125 14.7826 13.5179 14.7826 14C14.7826 14.3308 15.0183 14.6108 15.3426 14.665L17.9869 15.1086C18.5502 15.2014 19.0622 15.4931 19.4311 15.9313C19.8 16.3695 20.0017 16.9257 20 17.5ZM11.3922 13.125C11.5264 12.4885 11.801 11.8904 12.1956 11.375H3.47826V17.5H11.3043V15.75H5.21739V13.125H11.3922ZM3.47826 9.625H7.82608V7.875H3.47826V9.625ZM7.82608 4.375H3.47826V6.125H7.82608V4.375ZM13.0704 21H0V2.625C0 1.17775 1.17043 0 2.60869 0H10.7948L17.3913 6.63775V8.75H15.6522V7.875H9.56521V1.75H2.60869C2.12956 1.75 1.73913 2.14287 1.73913 2.625V19.25H11.673C11.9803 19.9453 12.4619 20.5483 13.0704 21ZM11.3043 6.125H14.4226L11.3043 2.98725V6.125Z" fill="#1D5DEB"/>
</svg>
