<svg width="17" height="22" viewBox="0 0 17 22" fill="none" xmlns="http://www.w3.org/2000/svg">
<path d="M8.5 11C9.62076 11 10.7164 10.6774 11.6482 10.0731C12.5801 9.46874 13.3064 8.60975 13.7353 7.60476C14.1642 6.59977 14.2764 5.4939 14.0578 4.42701C13.8391 3.36011 13.2994 2.3801 12.5069 1.61091C11.7144 0.841726 10.7047 0.317902 9.60551 0.105683C8.50629 -0.106535 7.36691 0.00238307 6.33146 0.418665C5.29601 0.834947 4.411 1.5399 3.78834 2.44437C3.16568 3.34884 2.83333 4.4122 2.83333 5.5C2.83483 6.95825 3.43234 8.35635 4.49472 9.38748C5.5571 10.4186 6.99757 10.9985 8.5 11ZM8.5 1.83334C9.24717 1.83334 9.97757 2.04838 10.5988 2.45128C11.2201 2.85418 11.7043 3.42683 11.9902 4.09683C12.2761 4.76683 12.351 5.50407 12.2052 6.21533C12.0594 6.9266 11.6996 7.57993 11.1713 8.09273C10.643 8.60552 9.96982 8.95474 9.23701 9.09621C8.50419 9.23769 7.74461 9.16508 7.05431 8.88756C6.36401 8.61004 5.774 8.14007 5.35889 7.53709C4.94379 6.93411 4.72222 6.2252 4.72222 5.5C4.72222 4.52754 5.12024 3.59491 5.82871 2.90728C6.53718 2.21964 7.49807 1.83334 8.5 1.83334ZM8.5 12.8333C6.24643 12.8358 4.08587 13.7057 2.49235 15.2524C0.898836 16.799 0.00249981 18.896 0 21.0833C0 21.3264 0.0995036 21.5596 0.276621 21.7315C0.453739 21.9034 0.693962 22 0.944444 22C1.19493 22 1.43515 21.9034 1.61227 21.7315C1.78938 21.5596 1.88889 21.3264 1.88889 21.0833C1.88889 19.3815 2.58541 17.7494 3.82524 16.5461C5.06506 15.3427 6.74662 14.6667 8.5 14.6667C10.2534 14.6667 11.9349 15.3427 13.1748 16.5461C14.4146 17.7494 15.1111 19.3815 15.1111 21.0833C15.1111 21.3264 15.2106 21.5596 15.3877 21.7315C15.5648 21.9034 15.8051 22 16.0556 22C16.306 22 16.5463 21.9034 16.7234 21.7315C16.9005 21.5596 17 21.3264 17 21.0833C16.9975 18.896 16.1012 16.799 14.5076 15.2524C12.9141 13.7057 10.7536 12.8358 8.5 12.8333Z" fill="#1D5DEB"/>
</svg>
