<svg width="31" height="31" viewBox="0 0 31 31" fill="none" xmlns="http://www.w3.org/2000/svg">
<path d="M0.548828 15.2253C0.548828 23.634 7.36539 30.4506 15.7741 30.4506C24.1827 30.4506 30.9993 23.634 30.9993 15.2253C30.9993 6.81669 24.1827 0.00012207 15.7741 0.00012207C7.36539 0.00012207 0.548828 6.81669 0.548828 15.2253Z" fill="#0088CC"/>
<path d="M8.25564 14.9478C12.3426 13.1671 15.0679 11.9932 16.4315 11.4261C20.3249 9.80668 21.1339 9.52538 21.6612 9.51599C21.7772 9.51405 22.0365 9.54279 22.2045 9.67908C22.3463 9.79417 22.3853 9.94964 22.404 10.0588C22.4227 10.1679 22.4459 10.4164 22.4274 10.6107C22.2165 12.8275 21.3035 18.2071 20.8391 20.69C20.6426 21.7406 20.2556 22.0929 19.881 22.1273C19.0668 22.2022 18.4486 21.5893 17.6601 21.0724C16.4262 20.2636 15.7291 19.76 14.5314 18.9708C13.1472 18.0586 14.0445 17.5573 14.8334 16.738C15.0398 16.5236 18.6269 13.2608 18.6964 12.9648C18.705 12.9278 18.7131 12.7898 18.6311 12.7169C18.5491 12.6441 18.4282 12.669 18.3408 12.6888C18.2171 12.7169 16.2459 14.0198 12.4273 16.5974C11.8678 16.9816 11.361 17.1688 10.907 17.159C10.4064 17.1482 9.4435 16.876 8.72768 16.6433C7.84971 16.3579 7.15191 16.207 7.21267 15.7223C7.24432 15.4699 7.59198 15.2117 8.25564 14.9478Z" fill="white"/>
</svg>
