<svg width="59" height="60" viewBox="0 0 59 60" fill="none" xmlns="http://www.w3.org/2000/svg">
<path d="M8.94046 60H8.70633C7.46954 59.9708 6.25187 59.6841 5.12884 59.1577C4.00581 58.6314 3.00138 57.8765 2.17787 56.94C-0.94958 53.4176 -0.673556 47.4802 2.77921 43.9778L17.2409 29.3105C17.8644 28.6755 18.0887 27.733 17.8348 26.788C16.9517 23.4943 16.8654 20.033 17.5835 16.6982C19.3283 8.41084 26.0392 1.83845 34.2854 0.343471C36.7309 -0.108534 39.2362 -0.11446 41.6838 0.325971C42.5502 0.469773 43.3599 0.856007 44.0217 1.44121C44.6835 2.02641 45.1712 2.78736 45.4298 3.63842C46.0484 5.63588 45.4224 7.84085 43.7491 9.53582L38.2113 15.0782C36.5897 16.7232 36.3432 19.3032 37.6642 20.9406C38.4233 21.8856 39.4929 22.4356 40.6758 22.4956C41.2528 22.5219 41.8289 22.4268 42.368 22.2164C42.907 22.0061 43.3973 21.6849 43.8082 21.2731L50.1666 14.8982C50.8213 14.234 51.6439 13.7657 52.5438 13.5447C53.4438 13.3238 54.3864 13.3587 55.2681 13.6458C56.1367 13.9181 56.9145 14.4277 57.5166 15.1187C58.1187 15.8097 58.5217 16.6554 58.6814 17.5632C59.1119 20.0471 59.1061 22.5887 58.6642 25.0706C57.1855 33.4379 50.7063 40.2453 42.5365 42.0128C39.249 42.7417 35.8364 42.6534 32.5898 41.7553C31.6607 41.4953 30.7316 41.7253 30.1056 42.3578L15.3777 57.295C13.6679 59.0228 11.3538 59.9968 8.94046 60ZM38.3222 4.9834C37.2822 4.9834 36.2175 5.07089 35.1529 5.26339C28.8585 6.40587 23.7324 11.4208 22.4016 17.7407C21.8486 20.2958 21.9128 22.9486 22.5889 25.4731C23.3036 28.128 22.5889 30.9505 20.7257 32.8429L6.26401 47.5102C4.66209 49.1352 4.46 52.0351 5.84258 53.5926C6.6189 54.4676 7.68356 54.9676 8.83695 54.9976C9.97308 55.0451 11.0772 54.5901 11.8954 53.7626L26.6208 38.8253C28.4815 36.9379 31.2664 36.2079 33.8861 36.9329C36.3605 37.6179 38.926 37.6829 41.5088 37.1229C47.7391 35.7754 52.6829 30.578 53.8116 24.1881C54.1516 22.2866 54.1566 20.339 53.8264 18.4357V18.4182L47.2831 24.8156C46.3927 25.7281 45.321 26.4381 44.1394 26.8984C42.9577 27.3587 41.6931 27.5589 40.4294 27.4855C39.161 27.4185 37.9205 27.0829 36.7876 26.5004C35.6548 25.9178 34.6547 25.1012 33.8516 24.1031C30.946 20.5056 31.3354 14.9807 34.7413 11.5283L40.279 5.98588C40.7202 5.53589 40.7498 5.20089 40.7325 5.13339C39.9346 5.03179 39.1313 4.98003 38.3271 4.9784L38.3222 4.9834Z" fill="#1D5DEB"/>
</svg>
