<svg width="49" height="60" viewBox="0 0 49 60" fill="none" xmlns="http://www.w3.org/2000/svg">
<path d="M22.3244 31.2501L32.585 20.7503C32.8136 20.5175 33.0849 20.333 33.3834 20.2072C33.6819 20.0814 34.0017 20.0168 34.3246 20.0172C34.6476 20.0175 34.9673 20.0828 35.2655 20.2092C35.5638 20.3356 35.8347 20.5208 36.0628 20.754C36.2909 20.9873 36.4717 21.2641 36.595 21.5687C36.7183 21.8732 36.7815 22.1996 36.7812 22.5291C36.7809 22.8587 36.7169 23.1849 36.593 23.4892C36.4691 23.7935 36.2877 24.0699 36.0591 24.3027L25.5927 34.9825C25.1644 35.4225 24.6547 35.7713 24.0932 36.0086C23.5318 36.2459 22.9297 36.3671 22.322 36.365H22.2411C21.621 36.3553 21.0092 36.2174 20.4428 35.9596C19.8765 35.7018 19.3672 35.3294 18.9459 34.8651L13.2962 28.8651C13.0637 28.6306 12.8796 28.351 12.7546 28.0427C12.6297 27.7344 12.5665 27.4038 12.5688 27.0702C12.571 26.7366 12.6387 26.4069 12.7678 26.1004C12.8968 25.7939 13.0847 25.5169 13.3203 25.2856C13.556 25.0544 13.8345 24.8736 14.1397 24.7539C14.4448 24.6342 14.7704 24.5781 15.0971 24.5887C15.4239 24.5994 15.7452 24.6767 16.0423 24.8161C16.3393 24.9554 16.606 25.154 16.8266 25.4002L22.3244 31.2501Z" fill="#1D5DEB"/>
<path fill-rule="evenodd" clip-rule="evenodd" d="M25.2742 0.1281L40.6234 5.35052C43.0639 6.17771 45.1868 7.76863 46.6905 9.89723C48.1943 12.0258 49.0024 14.5838 49 17.2078V30.0001C49 48.9074 26.46 59.3497 25.4947 59.7847C25.1815 59.9266 24.8427 60 24.5 60C24.1573 60 23.8185 59.9266 23.5053 59.7847C22.54 59.3497 5.15999e-06 48.9074 5.15999e-06 30.0001V17.2078C-0.0023561 14.5838 0.805741 12.0258 2.30948 9.89723C3.81322 7.76863 5.93612 6.17771 8.37655 5.35052L23.7258 0.1281C24.2284 -0.0427 24.7716 -0.0427 25.2742 0.1281ZM24.5 54.7223C28.6185 52.5823 44.1 43.6374 44.1 30.0001V17.2078C44.0999 15.6336 43.6142 14.0992 42.7119 12.8223C41.8096 11.5453 40.5364 10.5904 39.0726 10.0929L24.5 5.13552L9.9274 10.0929C8.46364 10.5904 7.1904 11.5453 6.28809 12.8223C5.38578 14.0992 4.90015 15.6336 4.9 17.2078V30.0001C4.9 43.6724 20.3767 52.5898 24.5 54.7223Z" fill="#1D5DEB"/>
</svg>
