<svg width="107" height="32" viewBox="0 0 107 32" fill="none" xmlns="http://www.w3.org/2000/svg">
<path d="M4.43314 31.1287H103.055C104.885 31.1287 106.373 29.6647 106.373 27.8964V4.7872C106.373 3.01892 104.885 1.55488 103.055 1.55488H4.43314C2.60321 1.55488 1.11478 3.01892 1.11478 4.7872V27.8964C1.11478 29.6647 2.60321 31.1287 4.43314 31.1287Z" stroke="#7789B5"/>
<path d="M37.8984 8.82602C37.8984 9.46922 37.7012 9.98437 37.3126 10.3686C36.8658 10.824 36.284 11.0532 35.5709 11.0532C34.8895 11.0532 34.3076 10.8201 33.8303 10.3609C33.3519 9.89482 33.1133 9.32286 33.1133 8.63825C33.1133 7.95364 33.3519 7.38169 33.8303 6.91951C34.3076 6.45636 34.8895 6.22334 35.5709 6.22334C35.9102 6.22334 36.2337 6.29171 36.5423 6.41881C36.85 6.54687 37.1005 6.72019 37.282 6.93395L36.8698 7.34029C36.5532 6.97536 36.1222 6.7953 35.5709 6.7953C35.0739 6.7953 34.6429 6.96476 34.277 7.30659C33.9151 7.64937 33.7336 8.09326 33.7336 8.63825C33.7336 9.18325 33.9151 9.63099 34.277 9.97377C34.6429 10.3117 35.0739 10.4851 35.5709 10.4851C36.0986 10.4851 36.5424 10.3117 36.8925 9.96992C37.1232 9.74364 37.2544 9.43167 37.2889 9.03304H35.5709V8.47649H37.8629C37.8905 8.59685 37.8984 8.71336 37.8984 8.82602Z" fill="#7789B5" stroke="#7789B5" stroke-width="0.16" stroke-miterlimit="10"/>
<path d="M41.5358 6.89651H39.3829V8.3601H41.3238V8.91664H39.3829V10.3802H41.5358V10.9474H38.7734V6.32938H41.5358V6.89651Z" fill="#7789B5" stroke="#7789B5" stroke-width="0.16" stroke-miterlimit="10"/>
<path d="M44.1019 10.9474H43.4924V6.89651H42.1719V6.32938H45.4234V6.89651H44.1019V10.9474Z" fill="#7789B5" stroke="#7789B5" stroke-width="0.16" stroke-miterlimit="10"/>
<path d="M47.7754 10.9474V6.32938H48.3839V10.9474H47.7754Z" fill="#7789B5" stroke="#7789B5" stroke-width="0.16" stroke-miterlimit="10"/>
<path d="M51.0824 10.9474H50.4778V6.89651H49.1523V6.32938H52.4078V6.89651H51.0824V10.9474Z" fill="#7789B5" stroke="#7789B5" stroke-width="0.16" stroke-miterlimit="10"/>
<path d="M58.5633 10.3531C58.0968 10.8201 57.5189 11.0532 56.8295 11.0532C56.1362 11.0532 55.5583 10.8201 55.0918 10.3531C54.6263 9.88711 54.3945 9.31516 54.3945 8.63825C54.3945 7.96135 54.6263 7.38939 55.0918 6.92336C55.5583 6.45636 56.1362 6.22334 56.8295 6.22334C57.5149 6.22334 58.0928 6.45636 58.5593 6.92721C59.0288 7.3971 59.2605 7.9652 59.2605 8.63825C59.2605 9.31516 59.0288 9.88711 58.5633 10.3531ZM55.5425 9.96607C55.8936 10.3117 56.3206 10.4851 56.8295 10.4851C57.3344 10.4851 57.7654 10.3117 58.1126 9.96607C58.4627 9.62039 58.6402 9.17651 58.6402 8.63825C58.6402 8.1 58.4627 7.65611 58.1126 7.31044C57.7654 6.96476 57.3344 6.79144 56.8295 6.79144C56.3206 6.79144 55.8936 6.96476 55.5425 7.31044C55.1924 7.65611 55.0149 8.1 55.0149 8.63825C55.0149 9.17651 55.1924 9.62039 55.5425 9.96607Z" fill="#7789B5" stroke="#7789B5" stroke-width="0.16" stroke-miterlimit="10"/>
<path d="M60.1152 10.9474V6.32938H60.8549L63.1547 9.92093H63.1814L63.1547 9.03315V6.32938H63.7632V10.9474H63.1281L60.7198 7.17864H60.6932L60.7198 8.07027V10.9474H60.1152Z" fill="#7789B5" stroke="#7789B5" stroke-width="0.16" stroke-miterlimit="10"/>
<path d="M54.2444 17.6916C52.3913 17.6916 50.8774 19.0686 50.8774 20.9683C50.8774 22.8527 52.3913 24.2441 54.2444 24.2441C56.1014 24.2441 57.6153 22.8527 57.6153 20.9683C57.6153 19.0686 56.1014 17.6916 54.2444 17.6916ZM54.2444 22.9538C53.2276 22.9538 52.3528 22.1344 52.3528 20.9683C52.3528 19.7869 53.2276 18.9819 54.2444 18.9819C55.2612 18.9819 56.1399 19.7869 56.1399 20.9683C56.1399 22.1344 55.2612 22.9538 54.2444 22.9538ZM46.8981 17.6916C45.041 17.6916 43.5311 19.0686 43.5311 20.9683C43.5311 22.8527 45.041 24.2441 46.8981 24.2441C48.7541 24.2441 50.265 22.8527 50.265 20.9683C50.265 19.0686 48.7541 17.6916 46.8981 17.6916ZM46.8981 22.9538C45.8803 22.9538 45.0026 22.1344 45.0026 20.9683C45.0026 19.7869 45.8803 18.9819 46.8981 18.9819C47.9148 18.9819 48.7896 19.7869 48.7896 20.9683C48.7896 22.1344 47.9148 22.9538 46.8981 22.9538ZM38.1563 18.6959V20.0883H41.5617C41.462 20.8663 41.1958 21.4382 40.7875 21.8369C40.2904 22.3183 39.5162 22.8527 38.1563 22.8527C36.0605 22.8527 34.4195 21.2014 34.4195 19.1552C34.4195 17.1091 36.0605 15.4578 38.1563 15.4578C39.2894 15.4578 40.1139 15.8901 40.7224 16.4505L41.7273 15.4693C40.8762 14.6759 39.7441 14.0664 38.1563 14.0664C35.2824 14.0664 32.8672 16.3494 32.8672 19.1552C32.8672 21.9611 35.2824 24.2441 38.1563 24.2441C39.7095 24.2441 40.8762 23.7472 41.7934 22.8151C42.7333 21.8975 43.0262 20.6073 43.0262 19.5654C43.0262 19.2419 42.9986 18.9444 42.9493 18.6959H38.1563ZM73.9026 19.7753C73.6255 19.0426 72.7704 17.6916 71.0288 17.6916C69.3029 17.6916 67.866 19.0195 67.866 20.9683C67.866 22.8036 69.2881 24.2441 71.1944 24.2441C72.7359 24.2441 73.6255 23.3264 73.9913 22.792L72.8473 22.0477C72.4657 22.5927 71.9459 22.9538 71.1944 22.9538C70.4479 22.9538 69.9124 22.6197 69.5692 21.9611L74.0574 20.148L73.9026 19.7753ZM69.3266 20.8663C69.2881 19.603 70.3315 18.9559 71.0791 18.9559C71.6649 18.9559 72.1619 19.2419 72.3276 19.6511L69.3266 20.8663ZM65.6785 24.0447H67.1539V14.4159H65.6785V24.0447ZM63.2623 18.4215H63.213C62.8816 18.0383 62.2495 17.6916 61.4487 17.6916C59.7682 17.6916 58.2316 19.1321 58.2316 20.9789C58.2316 22.8151 59.7682 24.2441 61.4487 24.2441C62.2495 24.2441 62.8816 23.8945 63.213 23.4998H63.2623V23.9696C63.2623 25.2224 62.5769 25.8954 61.4714 25.8954C60.57 25.8954 60.0108 25.2599 59.78 24.7255L58.4969 25.2483C58.8668 26.1169 59.8461 27.1857 61.4714 27.1857C63.2012 27.1857 64.6608 26.192 64.6608 23.7742V17.891H63.2623V18.4215ZM61.5749 22.9538C60.5581 22.9538 59.707 22.1228 59.707 20.9789C59.707 19.8244 60.5581 18.9819 61.5749 18.9819C62.5769 18.9819 63.3669 19.8244 63.3669 20.9789C63.3669 22.1228 62.5769 22.9538 61.5749 22.9538ZM80.81 14.4159H77.2814V24.0447H78.7528V20.3964H80.81C82.4442 20.3964 84.0468 19.2419 84.0468 17.4057C84.0468 15.5704 82.4402 14.4159 80.81 14.4159ZM80.8485 19.057H78.7528V15.7553H80.8485C81.9471 15.7553 82.5744 16.646 82.5744 17.4057C82.5744 18.1509 81.9471 19.057 80.8485 19.057ZM89.9444 17.6733C88.8812 17.6733 87.7757 18.1317 87.321 19.1475L88.6268 19.6819C88.9078 19.1475 89.4246 18.9742 89.971 18.9742C90.7343 18.9742 91.5085 19.4219 91.5203 20.2125V20.3136C91.2541 20.1634 90.684 19.9409 89.9828 19.9409C88.5765 19.9409 87.1435 20.6968 87.1435 22.1074C87.1435 23.3977 88.2954 24.2287 89.5903 24.2287C90.5805 24.2287 91.1268 23.7925 91.47 23.285H91.5203V24.0293H92.9415V20.3357C92.9415 18.6285 91.6357 17.6733 89.9444 17.6733ZM89.7668 22.9499C89.2856 22.9499 88.6149 22.7169 88.6149 22.1344C88.6149 21.3891 89.4513 21.1031 90.1751 21.1031C90.8231 21.1031 91.1268 21.2428 91.5203 21.4267C91.4049 22.3183 90.6189 22.9499 89.7668 22.9499ZM98.1191 17.8842L96.4277 22.0583H96.3774L94.6289 17.8842H93.0421L95.6693 23.7174L94.1703 26.9632H95.7078L99.7562 17.8842H98.1191ZM84.8555 24.0447H86.3309V14.4159H84.8555V24.0447Z" fill="#7789B5"/>
<path d="M8.72135 6.74237C8.48959 6.97924 8.35547 7.34802 8.35547 7.82561V24.8609C8.35547 25.3385 8.48959 25.7073 8.72135 25.9442L8.77855 25.9962L18.5559 16.454V16.2287L8.77855 6.68653L8.72135 6.74237Z" fill="#7789B5" stroke="#082665"/>
<path d="M21.8102 19.6365L18.5547 16.4541V16.2288L21.8141 13.0465L21.8871 13.0879L25.7472 15.2322C26.8488 15.8408 26.8488 16.8422 25.7472 17.4546L21.8871 19.5951L21.8102 19.6365Z" fill="#7789B5" stroke="#082665"/>
<path d="M21.8877 19.5949L18.5552 16.3413L8.7207 25.9441C9.08659 26.3197 9.68325 26.3649 10.3618 25.9894L21.8877 19.5949Z" fill="#7789B5"/>
<path d="M21.8877 13.088L10.3618 6.69348C9.68325 6.32181 9.08659 6.36706 8.7207 6.74259L18.5552 16.3416L21.8877 13.088Z" fill="#7789B5"/>
</svg>
