<svg width="60" height="60" viewBox="0 0 60 60" fill="none" xmlns="http://www.w3.org/2000/svg">
<path d="M25 57.5C25 58.163 24.7366 58.7989 24.2678 59.2678C23.7989 59.7366 23.163 60 22.5 60H12.5C5.6075 60 0 54.3925 0 47.5V12.5C0 5.6075 5.6075 0 12.5 0H32.5C39.3925 0 45 5.6075 45 12.5V17.5C45 18.163 44.7366 18.7989 44.2678 19.2678C43.7989 19.7366 43.163 20 42.5 20C41.837 20 41.2011 19.7366 40.7322 19.2678C40.2634 18.7989 40 18.163 40 17.5V12.5C40 8.365 36.635 5 32.5 5H12.5C8.365 5 5 8.365 5 12.5V47.5C5 51.635 8.365 55 12.5 55H22.5C23.163 55 23.7989 55.2634 24.2678 55.7322C24.7366 56.2011 25 56.837 25 57.5ZM35 15C35 14.337 34.7366 13.7011 34.2678 13.2322C33.7989 12.7634 33.163 12.5 32.5 12.5H12.5C11.837 12.5 11.2011 12.7634 10.7322 13.2322C10.2634 13.7011 10 14.337 10 15C10 15.663 10.2634 16.2989 10.7322 16.7678C11.2011 17.2366 11.837 17.5 12.5 17.5H32.5C33.163 17.5 33.7989 17.2366 34.2678 16.7678C34.7366 16.2989 35 15.663 35 15ZM25 27.5C25 26.837 24.7366 26.2011 24.2678 25.7322C23.7989 25.2634 23.163 25 22.5 25H12.5C11.837 25 11.2011 25.2634 10.7322 25.7322C10.2634 26.2011 10 26.837 10 27.5C10 28.163 10.2634 28.7989 10.7322 29.2678C11.2011 29.7366 11.837 30 12.5 30H22.5C23.163 30 23.7989 29.7366 24.2678 29.2678C24.7366 28.7989 25 28.163 25 27.5ZM12.5 37.5C11.837 37.5 11.2011 37.7634 10.7322 38.2322C10.2634 38.7011 10 39.337 10 40C10 40.663 10.2634 41.2989 10.7322 41.7678C11.2011 42.2366 11.837 42.5 12.5 42.5H17.5C18.163 42.5 18.7989 42.2366 19.2678 41.7678C19.7366 41.2989 20 40.663 20 40C20 39.337 19.7366 38.7011 19.2678 38.2322C18.7989 37.7634 18.163 37.5 17.5 37.5H12.5ZM60 42.5C60 52.1475 52.1475 60 42.5 60C32.8525 60 25 52.1475 25 42.5C25 32.8525 32.8525 25 42.5 25C52.1475 25 60 32.8525 60 42.5ZM55 42.5C55 35.6075 49.3925 30 42.5 30C35.6075 30 30 35.6075 30 42.5C30 49.3925 35.6075 55 42.5 55C49.3925 55 55 49.3925 55 42.5ZM47.02 39.3975L41.4625 44.7325C41.2886 44.9033 41.0548 44.9994 40.811 45.0003C40.5672 45.0013 40.3327 44.907 40.1575 44.7375L37.33 41.9675C37.0956 41.7377 36.8182 41.5563 36.5137 41.4337C36.2092 41.3111 35.8835 41.2496 35.5553 41.2529C35.227 41.2561 34.9026 41.324 34.6006 41.4526C34.2985 41.5812 34.0248 41.7681 33.795 42.0025C33.5652 42.2369 33.3838 42.5143 33.2612 42.8188C33.1386 43.1233 33.0771 43.449 33.0804 43.7772C33.0836 44.1055 33.1515 44.4299 33.2801 44.7319C33.4087 45.034 33.5956 45.3077 33.83 45.5375L36.66 48.31C37.81 49.4325 39.315 49.995 40.8175 49.995C42.32 49.995 43.82 49.4325 44.95 48.3175L50.4825 43.0075C50.9609 42.5483 51.2373 41.918 51.2509 41.255C51.2645 40.5921 51.0142 39.9509 50.555 39.4725C50.0958 38.9941 49.4655 38.7177 48.8025 38.7041C48.1396 38.6905 47.4984 38.9408 47.02 39.4V39.3975Z" fill="#1D5DEB"/>
</svg>
