<svg width="60" height="60" viewBox="0 0 60 60" fill="none" xmlns="http://www.w3.org/2000/svg">
<path d="M59.912 38.3504L58.6071 27.7663C58.5678 25.5543 57.8749 23.4037 56.6163 21.5865C55.3577 19.7693 53.5898 18.3672 51.5363 17.5575L41.6659 13.4524C39.5597 12.6135 37.2633 12.374 35.03 12.7602C32.7966 13.1464 30.7129 14.1434 29.0087 15.6413L19.8395 22.4605C17.3439 24.7358 15.3875 27.5418 14.1134 30.6731C14.1134 30.6731 13.0455 32.5993 13.0031 32.7019C12.2374 34.8 12.3152 37.1143 13.2202 39.1559C13.642 40.1518 14.2579 41.0533 15.0316 41.8076L14.9492 42.0127C14.2994 43.5386 14.2808 45.2609 14.8975 46.8006C15.5142 48.3403 16.7157 49.5713 18.2377 50.2228C19.7596 50.8743 21.4774 50.8929 23.0131 50.2746C24.5487 49.6563 25.7765 48.4517 26.4263 46.9257L38.4025 51.7412C37.8821 53.2828 37.9816 54.967 38.6798 56.4361C39.3779 57.9053 40.6199 59.0438 42.1417 59.6097C43.6636 60.1756 45.3456 60.1245 46.8304 59.4671C48.3153 58.8097 49.4861 57.5979 50.0941 56.0889L50.1291 56.0014C51.6765 56.0615 53.2045 55.6401 54.5036 54.7949C55.8026 53.9498 56.809 52.7223 57.3846 51.2809L58.4125 48.6793C59.7089 45.4007 60.2224 41.8635 59.912 38.3504ZM32.1599 19.5112C33.1793 18.5884 34.434 17.9671 35.7844 17.7163C37.1348 17.4654 38.5282 17.5949 39.8096 18.0903L49.6775 22.1929C50.8731 22.6769 51.8932 23.5149 52.6016 24.5952C53.3099 25.6755 53.6729 26.9467 53.6421 28.2391C53.6421 28.2691 54.6875 36.7144 54.6875 36.7144L25.0192 24.8245L32.1599 19.5112ZM20.2861 45.4848H20.2611L20.311 45.5049L20.2861 45.4848ZM43.8117 54.9432H43.7892L43.8316 54.9582L43.8117 54.9432ZM52.7488 49.4398C52.5062 50.0517 52.0327 50.543 51.4311 50.8071C50.8295 51.0713 50.1483 51.0869 49.5352 50.8507L19.0486 38.5705C18.468 38.2812 18.0212 37.7786 17.8011 37.1672C17.4461 36.3821 17.3746 35.4977 17.599 34.6656C17.599 34.6656 18.6494 32.7719 18.6893 32.6644C19.271 31.2075 20.0393 29.8326 20.9747 28.5743L25.0167 30.1953L24.2058 32.1966C23.957 32.8116 23.962 33.5005 24.2198 34.1118C24.4777 34.7231 24.9671 35.2066 25.5805 35.4561C26.1939 35.7056 26.8811 35.7005 27.4908 35.442C28.1004 35.1835 28.5827 34.6928 28.8315 34.0777L29.6499 32.0515L46.2368 38.6981L45.4135 40.7319C45.2903 41.0364 45.2281 41.3623 45.2305 41.6909C45.2329 42.0195 45.2999 42.3444 45.4275 42.6471C45.5552 42.9498 45.7411 43.2243 45.9745 43.4549C46.208 43.6856 46.4845 43.8679 46.7882 43.9914C47.4016 44.2409 48.0888 44.2358 48.6985 43.9773C49.0003 43.8493 49.2741 43.663 49.5042 43.4289C49.7342 43.1948 49.916 42.9176 50.0392 42.6131L50.8701 40.5568L54.917 42.1778C54.7513 43.766 54.3694 45.3239 53.7818 46.8082L52.7488 49.4398ZM9.97916 27.5162C9.97916 28.1796 9.71629 28.8159 9.24838 29.285C8.78047 29.7542 8.14585 30.0177 7.48413 30.0177H2.49409C2.02 30.0175 1.55577 29.8819 1.15577 29.6268C0.755767 29.3717 0.436545 29.0075 0.235487 28.5771C0.0344278 28.1466 -0.0401457 27.6676 0.0204984 27.1962C0.0811425 26.7248 0.274494 26.2804 0.577911 25.9152L4.54749 21.1397C4.81149 20.8243 4.9562 20.4257 4.9562 20.014C4.9562 19.6023 4.81149 19.2037 4.54749 18.8883L0.577911 14.1078C0.274494 13.7426 0.0811425 13.2983 0.0204984 12.8268C-0.0401457 12.3554 0.0344278 11.8764 0.235487 11.4459C0.436545 11.0155 0.755767 10.6513 1.15577 10.3962C1.55577 10.1411 2.02 10.0055 2.49409 10.0053H8.23264C8.69484 10.002 9.13717 9.81647 9.464 9.48878C9.79083 9.1611 9.97589 8.7176 9.97916 8.2542V2.50062C9.97933 2.02529 10.1146 1.55985 10.3691 1.1588C10.6235 0.757745 10.9867 0.437688 11.4161 0.236103C11.8454 0.034518 12.3231 -0.0402508 12.7933 0.020552C13.2635 0.0813549 13.7067 0.275213 14.071 0.579425L18.834 4.5594C19.1486 4.82409 19.5461 4.96918 19.9568 4.96918C20.3674 4.96918 20.7649 4.82409 21.0795 4.5594L25.8475 0.579425C26.2118 0.275213 26.655 0.0813549 27.1252 0.020552C27.5954 -0.0402508 28.0731 0.034518 28.5024 0.236103C28.9318 0.437688 29.295 0.757745 29.5494 1.1588C29.8039 1.55985 29.9392 2.02529 29.9393 2.50062V7.50373C29.9405 8.14018 29.6996 8.75313 29.2658 9.21776C28.8319 9.68239 28.2378 9.96376 27.6043 10.0046C26.9708 10.0454 26.3456 9.84257 25.8561 9.43743C25.3665 9.03229 25.0494 8.45529 24.9693 7.82393L24.2781 8.40179C23.0665 9.41657 21.538 9.97249 19.9592 9.97249C18.3805 9.97249 16.8519 9.41657 15.6404 8.40179L14.9692 7.84144V8.2542C14.9646 10.0441 14.2534 11.7594 12.991 13.025C11.7287 14.2907 10.0179 15.0038 8.23264 15.0084H7.82096L8.37985 15.6813C9.39198 16.8961 9.94645 18.4286 9.94645 20.0115C9.94645 21.5944 9.39198 23.1269 8.37985 24.3417L7.8035 25.0346C8.40501 25.1125 8.95765 25.4073 9.35808 25.864C9.7585 26.3208 9.97929 26.9081 9.97916 27.5162Z" fill="#1D5DEB"/>
</svg>
