<svg width="60" height="60" viewBox="0 0 60 60" fill="none" xmlns="http://www.w3.org/2000/svg">
<path d="M32.4998 59.8875C31.8368 59.917 31.1891 59.682 30.6994 59.2341C30.2097 58.7863 29.9181 58.1623 29.8886 57.4995C29.859 56.8366 30.0941 56.1892 30.5421 55.6996C30.9901 55.21 31.6143 54.9184 32.2773 54.8889C37.0084 54.4562 41.5182 52.6846 45.2785 49.7818C49.0388 46.879 51.894 42.9651 53.5095 38.4986C55.125 34.032 55.4339 29.1977 54.4003 24.5619C53.3666 19.9261 51.033 15.6808 47.6728 12.3231C44.3127 8.96539 40.0651 6.6344 35.4276 5.60312C30.79 4.57185 25.9546 4.88299 21.4875 6.5001C17.0205 8.11721 13.1069 10.9733 10.205 14.734C7.30313 18.4946 5.53318 23.004 5.10247 27.734C5.07292 28.0609 4.97926 28.3788 4.82682 28.6695C4.67439 28.9602 4.46618 29.2181 4.21407 29.4283C3.96196 29.6386 3.67089 29.7972 3.35749 29.895C3.04408 29.9928 2.71447 30.0279 2.38748 29.9984C2.06049 29.9688 1.74253 29.8752 1.45174 29.7228C1.16094 29.5704 0.903024 29.3623 0.692701 29.1102C0.482377 28.8582 0.32377 28.5672 0.225935 28.2539C0.128099 27.9406 0.092952 27.611 0.122499 27.2841C0.819717 19.5946 4.45648 12.47 10.2758 7.39361C16.095 2.3172 23.6484 -0.319983 31.3637 0.0310377C39.0789 0.382059 46.3615 3.69423 51.6955 9.27809C57.0295 14.862 60.0039 22.2873 59.9996 30.0084C60.0379 37.5021 57.2532 44.7357 52.1994 50.2703C47.1456 55.8048 40.1931 59.2346 32.7248 59.8775C32.65 59.8846 32.5749 59.8879 32.4998 59.8875Z" fill="#1D5DEB"/>
<path d="M2.49998 60C1.83695 60 1.20107 59.7367 0.732228 59.268C0.26339 58.7993 0 58.1636 0 57.5007C0 56.8378 0.26339 56.2021 0.732228 55.7334C1.20107 55.2647 1.83695 55.0014 2.49998 55.0014H22.4999C23.1629 55.0014 23.7988 55.2647 24.2676 55.7334C24.7364 56.2021 24.9998 56.8378 24.9998 57.5007C24.9998 58.1636 24.7364 58.7993 24.2676 59.268C23.7988 59.7367 23.1629 60 22.4999 60H2.49998Z" fill="#1D5DEB"/>
<path d="M17.4999 50.0028H2.49998C1.83695 50.0028 1.20107 49.7395 0.732228 49.2708C0.26339 48.8021 0 48.1663 0 47.5035C0 46.8406 0.26339 46.2049 0.732228 45.7362C1.20107 45.2675 1.83695 45.0042 2.49998 45.0042H17.4999C18.1629 45.0042 18.7988 45.2675 19.2676 45.7362C19.7365 46.2049 19.9999 46.8406 19.9999 47.5035C19.9999 48.1663 19.7365 48.8021 19.2676 49.2708C18.7988 49.7395 18.1629 50.0028 17.4999 50.0028Z" fill="#1D5DEB"/>
<path d="M12.4999 40.0056H2.49998C1.83695 40.0056 1.20107 39.7423 0.732228 39.2736C0.26339 38.8048 0 38.1691 0 37.5063C0 36.8434 0.26339 36.2077 0.732228 35.739C1.20107 35.2703 1.83695 35.007 2.49998 35.007H12.4999C13.163 35.007 13.7988 35.2703 14.2677 35.739C14.7365 36.2077 14.9999 36.8434 14.9999 37.5063C14.9999 38.1691 14.7365 38.8048 14.2677 39.2736C13.7988 39.7423 13.163 40.0056 12.4999 40.0056Z" fill="#1D5DEB"/>
<path d="M28.232 15.7446C28.7009 15.2759 29.3368 15.0126 29.9998 15.0126C30.6628 15.0126 31.2987 15.2759 31.7676 15.7446C32.2364 16.2133 32.4998 16.849 32.4998 17.5119V28.9737L39.2672 35.7393C39.7226 36.2107 39.9746 36.842 39.9689 37.4973C39.9632 38.1526 39.7003 38.7795 39.2368 39.2428C38.7733 39.7062 38.1462 39.9691 37.4908 39.9748C36.8353 39.9805 36.2038 39.7286 35.7323 39.2733L28.2323 31.7754C27.7634 31.3068 27.5 30.6712 27.4998 30.0084V17.5119C27.4998 16.849 27.7632 16.2133 28.232 15.7446Z" fill="#1D5DEB"/>
</svg>
