<svg width="45" height="60" viewBox="0 0 45 60" fill="none" xmlns="http://www.w3.org/2000/svg">
<path d="M42.8062 59.9214C41.2716 60.0363 40.1743 59.0173 40.0169 57.7535C39.3721 52.5911 37.0377 47.3263 34.3409 44.9587L24.4035 56.5672C23.4512 57.6786 21.5517 57.6786 20.602 56.5672L10.5546 44.8163C7.96776 47.3263 5.63087 52.5886 4.98604 57.7535C4.95254 58.0848 4.8531 58.406 4.69356 58.6983C4.53403 58.9906 4.31761 59.2481 4.05704 59.4556C3.79647 59.6631 3.497 59.8165 3.17626 59.9067C2.85552 59.9968 2.51997 60.022 2.18934 59.9807C1.85872 59.9394 1.5397 59.8325 1.25103 59.6662C0.962372 59.4999 0.7099 59.2776 0.508463 59.0124C0.307027 58.7472 0.160693 58.4444 0.0780668 58.1218C-0.00455924 57.7993 -0.0218095 57.4634 0.0273308 57.1341C0.639671 52.219 2.93157 45.101 7.36542 41.2074C8.32449 40.3703 9.56556 39.9277 10.8383 39.9689C12.1111 40.0102 13.3209 40.5322 14.2236 41.4297L22.504 51.1026L30.6493 41.5745C32.6488 39.5665 35.663 39.4641 37.6425 41.2099C42.0739 45.1035 44.3658 52.2215 44.9806 57.1366C45.1505 58.5053 44.1858 59.8215 42.8112 59.9239L42.8062 59.9214ZM2.50668 9.11661C2.50668 6.67902 4.12626 4.53614 6.47315 3.8693L18.2576 0.522608C21.0439 -0.174203 23.9591 -0.174203 26.7454 0.522608L38.5298 3.8693C39.588 4.17053 40.5305 4.78418 41.2338 5.62984C41.937 6.47549 42.3682 7.51371 42.4709 8.60845C42.5736 9.70319 42.3429 10.8034 41.8091 11.7649C41.2753 12.7264 40.4633 13.5043 39.4795 13.9968L37.4975 14.9858V19.9809C37.4975 28.2452 30.7718 34.966 22.5015 34.966C14.2311 34.966 7.50538 28.2452 7.50538 19.9809V14.9858L5.5234 13.9968C4.61661 13.5436 3.85407 12.8469 3.32124 11.985C2.78841 11.123 2.50635 10.1298 2.50668 9.11661ZM32.4989 19.0193C30.0595 19.5338 26.7279 19.9809 22.5015 19.9809C18.2751 19.9809 14.9434 19.5338 12.5041 19.0193V19.9809C12.5041 25.4904 16.9879 29.971 22.5015 29.971C28.015 29.971 32.4989 25.4904 32.4989 19.9809V19.0193ZM17.5028 10.1531C17.5028 13.4773 21.3818 15.6751 22.504 16.2346C23.6212 15.785 27.5002 13.9318 27.5002 10.1531V6.53167C27.5 6.29889 27.4265 6.07208 27.2901 5.88337C27.1538 5.69465 26.9614 5.5536 26.7404 5.48021L22.5015 4.07659L18.2626 5.48021C18.0411 5.55294 17.8483 5.69382 17.7119 5.88268C17.5754 6.07155 17.5022 6.29871 17.5028 6.53167V10.1531Z" fill="#1D5DEB"/>
</svg>
