<svg width="20" height="20" viewBox="0 0 20 20" fill="none" xmlns="http://www.w3.org/2000/svg">
<path d="M19.7923 19.7905C19.7259 19.8569 19.6472 19.9096 19.5604 19.9456C19.4737 19.9815 19.3808 20 19.2869 20C19.193 20 19.1001 19.9815 19.0134 19.9456C18.9266 19.9096 18.8479 19.8569 18.7815 19.7905L10.0026 11.0124L1.22009 19.7905C1.08606 19.9245 0.904264 19.9998 0.714712 19.9998C0.525158 19.9998 0.343369 19.9245 0.209333 19.7905C0.0753002 19.6565 0 19.4747 0 19.2852C0 19.0956 0.0753002 18.9139 0.209333 18.7799L8.99184 10.0017L0.212906 1.21998C0.0788708 1.08596 0.00357056 0.904185 0.00357056 0.714649C0.00357056 0.525112 0.0788708 0.343338 0.212906 0.209316C0.346939 0.0752931 0.52873 0 0.718283 0C0.907837 0 1.08963 0.0752931 1.22366 0.209316L10.0026 8.99104L18.7851 0.212887C18.9217 0.0958738 19.0975 0.0347295 19.2773 0.0416729C19.4571 0.0486162 19.6276 0.123136 19.7548 0.25034C19.882 0.377544 19.9566 0.548064 19.9635 0.727824C19.9705 0.907584 19.9093 1.08334 19.7923 1.21998L11.0133 10.0017L19.7923 18.7834C19.9253 18.9172 20 19.0983 20 19.287C20 19.4757 19.9253 19.6567 19.7923 19.7905Z" fill="#0B1F33"/>
</svg>
