<svg width="34" height="24" viewBox="0 0 34 24" fill="none" xmlns="http://www.w3.org/2000/svg">
<path d="M8.5 1.71429C8.5 0.767545 9.26115 0 10.2 0H32.3C33.2388 0 34 0.767545 34 1.71429C34 2.66103 33.2388 3.42857 32.3 3.42857H10.2C9.26115 3.42857 8.5 2.66096 8.5 1.71429ZM32.3 10.2857H1.7C0.761149 10.2857 0 11.0533 0 12C0 12.9467 0.761149 13.7143 1.7 13.7143H32.3C33.2388 13.7143 34 12.9467 34 12C34 11.0533 33.2388 10.2857 32.3 10.2857ZM32.3 20.5714H17C16.0612 20.5714 15.3 21.339 15.3 22.2857C15.3 23.2324 16.0612 24 17 24H32.3C33.2388 24 34 23.2324 34 22.2857C34 21.339 33.2388 20.5714 32.3 20.5714Z" fill="black"/>
</svg>
