<svg width="19" height="19" viewBox="0 0 19 19" fill="none" xmlns="http://www.w3.org/2000/svg">
<path d="M17.7693 8.67937C17.5641 8.67937 17.3673 8.59799 17.2222 8.45312C17.0771 8.30826 16.9955 8.11178 16.9955 7.90691C16.9939 6.26847 16.3412 4.69759 15.1807 3.53904C14.0202 2.38048 12.4467 1.72888 10.8055 1.72725C10.6003 1.72725 10.4035 1.64586 10.2584 1.501C10.1133 1.35613 10.0318 1.15966 10.0318 0.954787C10.0318 0.749918 10.1133 0.55344 10.2584 0.408576C10.4035 0.263712 10.6003 0.182329 10.8055 0.182329C12.857 0.184578 14.8237 0.999138 16.2743 2.44729C17.7249 3.89544 18.5408 5.85892 18.543 7.90691C18.543 8.11178 18.4615 8.30826 18.3164 8.45312C18.1713 8.59799 17.9745 8.67937 17.7693 8.67937ZM15.448 7.90691C15.448 6.6777 14.9589 5.49883 14.0883 4.62965C13.2176 3.76047 12.0368 3.27216 10.8055 3.27216C10.6003 3.27216 10.4035 3.35355 10.2584 3.49841C10.1133 3.64327 10.0318 3.83975 10.0318 4.04462C10.0318 4.24949 10.1133 4.44597 10.2584 4.59083C10.4035 4.7357 10.6003 4.81708 10.8055 4.81708C11.6264 4.81708 12.4136 5.14261 12.994 5.72207C13.5745 6.30153 13.9005 7.08744 13.9005 7.90691C13.9005 8.11178 13.9821 8.30826 14.1272 8.45312C14.2723 8.59799 14.4691 8.67937 14.6743 8.67937C14.8795 8.67937 15.0763 8.59799 15.2214 8.45312C15.3665 8.30826 15.448 8.11178 15.448 7.90691ZM17.1371 17.3031L17.8413 16.4928C18.2894 16.0439 18.5411 15.436 18.5411 14.8023C18.5411 14.1685 18.2894 13.5606 17.8413 13.1117C17.8173 13.0878 15.9556 11.658 15.9556 11.658C15.5088 11.2334 14.9153 10.9969 14.2985 10.9978C13.6816 10.9987 13.0888 11.2368 12.6432 11.6626L11.1684 12.9032C9.96461 12.4058 8.87107 11.6759 7.95062 10.7554C7.03016 9.83486 6.30093 8.74189 5.80479 7.53922L7.04279 6.07155C7.46968 5.62675 7.70844 5.03482 7.70945 4.4188C7.71046 3.80279 7.47363 3.21008 7.0482 2.76388C7.0482 2.76388 5.61444 0.907667 5.59046 0.883721C5.149 0.440135 4.55044 0.187753 3.92413 0.181104C3.29781 0.174455 2.69402 0.414074 2.24321 0.848188L1.3534 1.62065C-3.90347 7.70916 7.41651 18.9229 13.7164 18.7213C14.3526 18.725 14.983 18.6014 15.5705 18.3578C16.1581 18.1142 16.6907 17.7556 17.1371 17.3031Z" fill="white"/>
</svg>
