<svg width="60" height="60" viewBox="0 0 60 60" fill="none" xmlns="http://www.w3.org/2000/svg">
<path d="M47.5 15H42.5C39.7425 15 37.5 17.2425 37.5 20V30H34.92L10.67 0.9C10.4355 0.618442 10.1419 0.391879 9.81015 0.236352C9.47836 0.0808257 9.11643 0.0001374 8.75 0L7.5 0C6.83696 0 6.20107 0.263392 5.73223 0.732233C5.26339 1.20107 5 1.83696 5 2.5V16.25C5 16.5815 4.8683 16.8995 4.63388 17.1339C4.39946 17.3683 4.08152 17.5 3.75 17.5H2.5C1.83696 17.5 1.20107 17.7634 0.732233 18.2322C0.263392 18.7011 0 19.337 0 20C0 20.663 0.263392 21.2989 0.732233 21.7678C1.20107 22.2366 1.83696 22.5 2.5 22.5H3.75C7.195 22.5 10 19.695 10 16.25V7.905L28.4125 30H7.5C3.365 30 0 33.365 0 37.5V42.5C0 46.635 3.365 50 7.5 50H7.5925C7.415 51.2413 7.50607 52.5063 7.85955 53.7094C8.21303 54.9125 8.82069 56.0257 9.64145 56.9737C10.4622 57.9218 11.4769 58.6825 12.617 59.2046C13.7571 59.7267 14.996 59.998 16.25 60C17.504 59.998 18.7429 59.7267 19.883 59.2046C21.0231 58.6825 22.0378 57.9218 22.8585 56.9737C23.6793 56.0257 24.287 54.9125 24.6404 53.7094C24.9939 52.5063 25.085 51.2413 24.9075 50H35.0925C34.915 51.2413 35.0061 52.5063 35.3596 53.7094C35.713 54.9125 36.3207 56.0257 37.1415 56.9737C37.9622 57.9218 38.9769 58.6825 40.117 59.2046C41.2571 59.7267 42.496 59.998 43.75 60C45.0281 59.9979 46.2902 59.7162 47.4479 59.1746C48.6056 58.633 49.6307 57.8447 50.4514 56.8649C51.272 55.8851 51.8684 54.7376 52.1985 53.5028C52.5287 52.2681 52.5846 50.9761 52.3625 49.7175C54.5389 49.1852 56.474 47.9386 57.8585 46.177C59.2431 44.4154 59.9971 42.2406 60 40V27.5C60 20.6075 54.3925 15 47.5 15ZM47.5 20C51.635 20 55 23.365 55 27.5V30H42.5V20H47.5ZM5 42.5V37.5C5 36.1225 6.1225 35 7.5 35H37.5V45H7.5C6.1225 45 5 43.8775 5 42.5ZM20 51.25C20 53.3175 18.3175 55 16.25 55C14.1825 55 12.5 53.3175 12.5 51.25C12.5 50.7775 12.5925 50.36 12.7275 50H19.775C19.91 50.36 20.0025 50.7775 20.0025 51.25H20ZM43.75 55C41.6825 55 40 53.3175 40 51.25C40 50.7775 40.0925 50.36 40.2275 50H47.275C47.41 50.36 47.5025 50.7775 47.5025 51.25C47.5025 53.3175 45.8175 55 43.75 55ZM50 45H42.5V35H55V40C55 42.7575 52.7575 45 50 45Z" fill="#1D5DEB"/>
</svg>
