<svg width="47" height="60" viewBox="0 0 47 60" fill="none" xmlns="http://www.w3.org/2000/svg">
<path d="M45.7647 53.7506V60H40.8134V53.7506C40.8134 50.3034 38.0382 47.5012 34.6243 47.5012H12.3435C10.7027 47.5032 9.12961 48.1623 7.96935 49.3338C6.8091 50.5054 6.1564 52.0938 6.15444 53.7506V60H1.20316V53.7506C1.20316 47.5487 6.20148 42.5017 12.3435 42.5017H34.6243C40.7663 42.5017 45.7647 47.5487 45.7647 53.7506ZM25.5238 15.2418C27.0653 15.6133 28.4756 16.4063 29.6002 17.5339C30.7247 18.6614 31.5199 20.0799 31.8986 21.6337C32.3778 23.6003 32.1696 25.6737 31.3094 27.5032H34.5426C35.1447 27.5084 35.728 27.2913 36.1825 26.8926C36.6371 26.4938 36.9317 25.9411 37.0108 25.3384C37.1832 23.8105 37.107 22.2644 36.7855 20.7613C35.6863 15.5643 31.5099 11.3722 26.3556 10.3023C24.3692 9.87465 22.3132 9.9003 20.3378 10.3774C18.3624 10.8545 16.5174 11.7711 14.9376 13.0601C13.3578 14.3492 12.0831 15.9782 11.2064 17.8282C10.3297 19.6782 9.87327 21.7026 9.87037 23.7535C9.86781 27.2848 11.2159 30.6808 13.6333 33.2326C13.7324 31.1128 14.4899 29.1655 15.703 27.5931C15.1215 26.3975 14.82 25.083 14.8216 23.751C14.8232 22.4271 15.1219 21.1207 15.6951 19.93C16.2683 18.7393 17.1013 17.6952 18.1314 16.8761C19.1615 16.057 20.3621 15.4842 21.6428 15.2007C22.9236 14.9172 24.2513 14.9304 25.5263 15.2393L25.5238 15.2418ZM10.7864 10.0748C14.5716 6.49269 19.5278 4.72287 24.7242 5.04783C34.4386 5.68277 42.0512 14.2194 42.0512 24.4809C42.0492 26.6078 41.2116 28.647 39.7222 30.151C38.2328 31.6549 36.2132 32.5007 34.1069 32.5027H28.1728C27.8357 31.3506 27.0993 30.3595 26.0981 29.7105C25.0969 29.0616 23.8979 28.7981 22.7202 28.9683C21.5425 29.1385 20.4648 29.7309 19.6841 30.6374C18.9034 31.5439 18.4718 32.7037 18.4683 33.905C18.4687 34.8858 18.7549 35.8448 19.2911 36.6626C19.8273 37.4804 20.5899 38.1209 21.4839 38.5043C22.3779 38.8877 23.3639 38.9972 24.3191 38.819C25.2742 38.6408 26.1564 38.1828 26.8557 37.5022H34.1044C37.5233 37.4982 40.8011 36.1251 43.2186 33.684C45.6362 31.2429 46.9961 27.9332 47 24.4809C47.0025 11.5897 37.3574 0.860741 25.0436 0.0583194C21.8266 -0.170841 18.5975 0.276952 15.5608 1.37335C12.5241 2.46974 9.74591 4.19085 7.40216 6.4277C2.97892 10.6266 0.327924 16.3849 0 22.5061H4.9587C5.25241 17.761 7.33943 13.311 10.7888 10.0748H10.7864Z" fill="#1D5DEB"/>
</svg>
