<svg width="40" height="40" viewBox="0 0 40 40" fill="none" xmlns="http://www.w3.org/2000/svg">
<path d="M20 0C8.97167 0 0 8.97167 0 20C0 31.0283 8.97167 40 20 40C31.0283 40 40 31.0283 40 20C40 8.97167 31.0283 0 20 0ZM30.3333 17.52L22.9567 24.7617C21.6517 26.0417 19.9717 26.68 18.29 26.68C16.6267 26.68 14.9633 26.0533 13.6633 24.7983L10.4983 21.6867C9.84167 21.0417 9.83333 19.9867 10.4783 19.33C11.1217 18.6717 12.18 18.6633 12.835 19.31L15.99 22.4117C17.2833 23.6617 19.325 23.655 20.625 22.3817L28 15.1417C28.655 14.495 29.7067 14.5067 30.3567 15.1633C31.0017 15.82 30.9917 16.875 30.3333 17.52Z" fill="#1D5DEB"/>
</svg>
