<svg width="63" height="40" viewBox="0 0 63 40" fill="none" xmlns="http://www.w3.org/2000/svg">
<path d="M7.38744 33.3615C7.38744 34.006 7.32011 34.5254 7.18544 34.9198C7.05078 35.3142 6.80068 35.699 6.43516 36.0741C5.84839 36.6609 5.05482 36.9542 4.05444 36.9542C3.0252 36.9542 2.21239 36.6561 1.616 36.0597C1.38515 35.8288 1.20238 35.5691 1.06772 35.2805C0.93305 34.992 0.846478 34.7419 0.808002 34.5302C0.779145 34.3186 0.750287 34.0541 0.72143 33.7367H3.08772C3.16467 34.4581 3.48691 34.8188 4.05444 34.8188C4.32377 34.8188 4.54501 34.7322 4.71815 34.5591C4.92015 34.3571 5.02115 33.9579 5.02115 33.3615C5.02115 32.8229 4.93939 32.4477 4.77587 32.2361C4.61234 32.0149 4.37187 31.9042 4.05444 31.9042C3.89091 31.9042 3.74663 31.9283 3.62158 31.9764C3.50615 32.0245 3.40996 32.0918 3.33301 32.1784C3.26567 32.265 3.21758 32.3419 3.18872 32.4092C3.15986 32.467 3.1262 32.5439 3.08772 32.6401H0.909002V26.5945H7.17101V28.7299H3.05886V30.3171C3.40515 30.0478 3.86687 29.9131 4.44401 29.9131C5.29049 29.9131 5.9542 30.1536 6.43516 30.6345C6.81992 31.0193 7.07482 31.4281 7.19987 31.861C7.32492 32.2938 7.38744 32.794 7.38744 33.3615ZM15.3328 33.7511C15.3328 34.7611 15.0105 35.5499 14.366 36.1174C13.7216 36.6753 12.9424 36.9542 12.0286 36.9542C11.1148 36.9542 10.3357 36.6753 9.69117 36.1174C9.0467 35.5499 8.72446 34.7611 8.72446 33.7511V29.7111C8.72446 28.7011 9.0467 27.9171 9.69117 27.3592C10.3357 26.7917 11.1148 26.5079 12.0286 26.5079C12.9424 26.5079 13.7216 26.7917 14.366 27.3592C15.0105 27.9171 15.3328 28.7011 15.3328 29.7111V33.7511ZM12.9665 33.7655V29.7111C12.9665 29.3648 12.8751 29.1003 12.6923 28.9175C12.5192 28.7348 12.2979 28.6434 12.0286 28.6434C11.7593 28.6434 11.5332 28.7348 11.3505 28.9175C11.1773 29.1003 11.0907 29.3648 11.0907 29.7111V33.7655C11.0907 34.1118 11.1773 34.3763 11.3505 34.5591C11.5332 34.7322 11.7593 34.8188 12.0286 34.8188C12.2979 34.8188 12.5192 34.7322 12.6923 34.5591C12.8751 34.3763 12.9665 34.1118 12.9665 33.7655ZM21.4745 33.7222H16.7419V31.5002H21.4745V33.7222ZM29.5658 33.3615C29.5658 34.006 29.4984 34.5254 29.3638 34.9198C29.2291 35.3142 28.979 35.699 28.6135 36.0741C28.0267 36.6609 27.2332 36.9542 26.2328 36.9542C25.2035 36.9542 24.3907 36.6561 23.7943 36.0597C23.5635 35.8288 23.3807 35.5691 23.2461 35.2805C23.1114 34.992 23.0248 34.7419 22.9863 34.5302C22.9575 34.3186 22.9286 34.0541 22.8998 33.7367H25.2661C25.343 34.4581 25.6652 34.8188 26.2328 34.8188C26.5021 34.8188 26.7233 34.7322 26.8965 34.5591C27.0985 34.3571 27.1995 33.9579 27.1995 33.3615C27.1995 32.8229 27.1177 32.4477 26.9542 32.2361C26.7907 32.0149 26.5502 31.9042 26.2328 31.9042C26.0692 31.9042 25.925 31.9283 25.7999 31.9764C25.6845 32.0245 25.5883 32.0918 25.5113 32.1784C25.444 32.265 25.3959 32.3419 25.3671 32.4092C25.3382 32.467 25.3045 32.5439 25.2661 32.6401H23.0873V26.5945H29.3494V28.7299H25.2372V30.3171C25.5835 30.0478 26.0452 29.9131 26.6223 29.9131C27.4688 29.9131 28.1325 30.1536 28.6135 30.6345C28.9983 31.0193 29.2532 31.4281 29.3782 31.861C29.5033 32.2938 29.5658 32.794 29.5658 33.3615ZM37.5111 33.7511C37.5111 34.7611 37.1889 35.5499 36.5444 36.1174C35.8999 36.6753 35.1208 36.9542 34.2069 36.9542C33.2931 36.9542 32.514 36.6753 31.8695 36.1174C31.225 35.5499 30.9028 34.7611 30.9028 33.7511V29.7111C30.9028 28.7011 31.225 27.9171 31.8695 27.3592C32.514 26.7917 33.2931 26.5079 34.2069 26.5079C35.1208 26.5079 35.8999 26.7917 36.5444 27.3592C37.1889 27.9171 37.5111 28.7011 37.5111 29.7111V33.7511ZM35.1448 33.7655V29.7111C35.1448 29.3648 35.0534 29.1003 34.8707 28.9175C34.6975 28.7348 34.4763 28.6434 34.2069 28.6434C33.9376 28.6434 33.7116 28.7348 33.5288 28.9175C33.3557 29.1003 33.2691 29.3648 33.2691 29.7111V33.7655C33.2691 34.1118 33.3557 34.3763 33.5288 34.5591C33.7116 34.7322 33.9376 34.8188 34.2069 34.8188C34.4763 34.8188 34.6975 34.7322 34.8707 34.5591C35.0534 34.3763 35.1448 34.1118 35.1448 33.7655ZM43.6528 33.7222H38.9203V31.5002H43.6528V33.7222ZM51.7441 33.3615C51.7441 34.006 51.6768 34.5254 51.5421 34.9198C51.4075 35.3142 51.1574 35.699 50.7918 36.0741C50.2051 36.6609 49.4115 36.9542 48.4111 36.9542C47.3819 36.9542 46.5691 36.6561 45.9727 36.0597C45.7418 35.8288 45.5591 35.5691 45.4244 35.2805C45.2897 34.992 45.2032 34.7419 45.1647 34.5302C45.1358 34.3186 45.107 34.0541 45.0781 33.7367H47.4444C47.5213 34.4581 47.8436 34.8188 48.4111 34.8188C48.6804 34.8188 48.9017 34.7322 49.0748 34.5591C49.2768 34.3571 49.3778 33.9579 49.3778 33.3615C49.3778 32.8229 49.2961 32.4477 49.1325 32.2361C48.969 32.0149 48.7285 31.9042 48.4111 31.9042C48.2476 31.9042 48.1033 31.9283 47.9783 31.9764C47.8628 32.0245 47.7666 32.0918 47.6897 32.1784C47.6223 32.265 47.5743 32.3419 47.5454 32.4092C47.5165 32.467 47.4829 32.5439 47.4444 32.6401H45.2657V26.5945H51.5277V28.7299H47.4155V30.3171C47.7618 30.0478 48.2235 29.9131 48.8007 29.9131C49.6472 29.9131 50.3109 30.1536 50.7918 30.6345C51.1766 31.0193 51.4315 31.4281 51.5565 31.861C51.6816 32.2938 51.7441 32.794 51.7441 33.3615ZM59.6894 33.7511C59.6894 34.7611 59.3672 35.5499 58.7227 36.1174C58.0782 36.6753 57.2991 36.9542 56.3853 36.9542C55.4715 36.9542 54.6923 36.6753 54.0478 36.1174C53.4034 35.5499 53.0811 34.7611 53.0811 33.7511V29.7111C53.0811 28.7011 53.4034 27.9171 54.0478 27.3592C54.6923 26.7917 55.4715 26.5079 56.3853 26.5079C57.2991 26.5079 58.0782 26.7917 58.7227 27.3592C59.3672 27.9171 59.6894 28.7011 59.6894 29.7111V33.7511ZM57.3231 33.7655V29.7111C57.3231 29.3648 57.2318 29.1003 57.049 28.9175C56.8759 28.7348 56.6546 28.6434 56.3853 28.6434C56.1159 28.6434 55.8899 28.7348 55.7071 28.9175C55.534 29.1003 55.4474 29.3648 55.4474 29.7111V33.7655C55.4474 34.1118 55.534 34.3763 55.7071 34.5591C55.8899 34.7322 56.1159 34.8188 56.3853 34.8188C56.6546 34.8188 56.8759 34.7322 57.049 34.5591C57.2318 34.3763 57.3231 34.1118 57.3231 33.7655Z" fill="#004EA1"/>
<path d="M6.1447 10H4.42268L4.11215 9.00254H2.05137L1.72202 10H0L2.43718 3.30011H3.70752L6.1447 10ZM3.67929 7.62869L3.1147 5.8408L2.51246 7.62869H3.67929ZM11.8313 8.03332C11.8313 8.62928 11.64 9.10605 11.2573 9.46363C10.8809 9.82121 10.3759 10 9.74232 10H6.82523V3.30011H9.60117C10.2536 3.30011 10.7711 3.46949 11.1538 3.80825C11.5428 4.14701 11.7372 4.60496 11.7372 5.1821C11.7372 5.7467 11.4926 6.20779 11.0033 6.56536C11.2981 6.75356 11.5083 6.96058 11.6337 7.18642C11.7655 7.41226 11.8313 7.69456 11.8313 8.03332ZM9.93052 5.72788C10.0372 5.62751 10.0905 5.49263 10.0905 5.32325C10.0905 5.15387 10.0372 5.02213 9.93052 4.92803C9.83015 4.82766 9.68586 4.77747 9.49766 4.77747H8.47198V5.86903H9.49766C9.68586 5.86903 9.83015 5.82198 9.93052 5.72788ZM10.0246 8.36267C10.1313 8.25602 10.1846 8.11173 10.1846 7.92981C10.1846 7.74788 10.1313 7.60673 10.0246 7.50636C9.91797 7.39971 9.77055 7.34639 9.58235 7.34639H8.47198V8.52264H9.58235C9.77055 8.52264 9.91797 8.46931 10.0246 8.36267ZM18.3482 10H16.6262L16.3157 9.00254H14.2549L13.9256 10H12.2035L14.6407 3.30011H15.9111L18.3482 10ZM15.8828 7.62869L15.3182 5.8408L14.716 7.62869H15.8828ZM23.3574 3.93999C23.7651 4.3603 23.969 4.8653 23.969 5.45499C23.969 6.04468 23.7651 6.55282 23.3574 6.9794C22.9496 7.39971 22.3913 7.60987 21.6824 7.60987H20.6755V10H19.0288V3.30011H21.6824C22.3913 3.30011 22.9496 3.5134 23.3574 3.93999ZM22.1247 5.9349C22.2564 5.79688 22.3223 5.63692 22.3223 5.45499C22.3223 5.27306 22.2564 5.11623 22.1247 4.98449C21.9929 4.84648 21.8204 4.77747 21.6071 4.77747H20.6755V6.13251H21.6071C21.8204 6.13251 21.9929 6.06664 22.1247 5.9349ZM30.1144 10H28.4676V6.34894L26.3222 10H24.8824V3.30011H26.5292V6.95117L28.6746 3.30011H30.1144V10ZM35.7245 1.54986C35.7183 1.89489 35.6273 2.18032 35.4517 2.40616C35.276 2.632 35.0753 2.7857 34.8494 2.86725C34.6236 2.94253 34.3758 2.98017 34.106 2.98017C33.8363 2.98017 33.5885 2.94253 33.3626 2.86725C33.1368 2.7857 32.9361 2.632 32.7604 2.40616C32.5848 2.18032 32.4938 1.89489 32.4875 1.54986H33.6073C33.6261 1.88234 33.7924 2.04858 34.106 2.04858C34.4197 2.04858 34.5859 1.88234 34.6048 1.54986H35.7245ZM36.7032 10H35.0564V6.34894L32.911 10H31.4712V3.30011H33.118V6.95117L35.2635 3.30011H36.7032V10ZM43.1038 10H41.457V7.34639H39.7068V10H38.06V3.30011H39.7068V5.87844H41.457V3.30011H43.1038V10ZM51.6639 10H50.0172V3.30011H51.6639V10ZM48.7751 6.30189C49.1891 6.70338 49.3961 7.21779 49.3961 7.84512C49.3961 8.47245 49.186 8.99 48.7656 9.39776C48.3516 9.79925 47.8152 10 47.1565 10H44.4559V3.30011H46.1026V5.69024H47.1565C47.8215 5.69024 48.361 5.89412 48.7751 6.30189ZM47.5423 8.33444C47.6804 8.2027 47.7494 8.03959 47.7494 7.84512C47.7494 7.65065 47.6804 7.49068 47.5423 7.36521C47.4106 7.23347 47.2412 7.1676 47.0342 7.1676H46.1026V8.53205H47.0342C47.2412 8.53205 47.4106 8.46618 47.5423 8.33444ZM57.2737 1.54986C57.2674 1.89489 57.1765 2.18032 57.0008 2.40616C56.8252 2.632 56.6244 2.7857 56.3986 2.86725C56.1727 2.94253 55.925 2.98017 55.6552 2.98017C55.3854 2.98017 55.1377 2.94253 54.9118 2.86725C54.686 2.7857 54.4852 2.632 54.3096 2.40616C54.1339 2.18032 54.043 1.89489 54.0367 1.54986H55.1565C55.1753 1.88234 55.3415 2.04858 55.6552 2.04858C55.9689 2.04858 56.1351 1.88234 56.1539 1.54986H57.2737ZM58.2523 10H56.6056V6.34894L54.4601 10H53.0204V3.30011H54.6672V6.95117L56.8126 3.30011H58.2523V10ZM2.78911 22H0.81302V13.9601H2.78911V22ZM7.49785 22H5.17171L2.8004 17.7768L4.96846 13.9601H7.23814L4.86683 17.6978L7.49785 22ZM13.8187 16.9977C13.8338 17.216 13.8413 17.5434 13.8413 17.9801C13.8413 18.4167 13.8338 18.7442 13.8187 18.9625C13.8112 19.1808 13.7848 19.4443 13.7397 19.7529C13.6945 20.0615 13.6117 20.3288 13.4912 20.5546C13.3708 20.7805 13.2127 20.9913 13.017 21.187C12.4298 21.7742 11.6845 22.0678 10.7812 22.0678C9.87781 22.0678 9.13254 21.7742 8.54536 21.187C8.34963 20.9913 8.19154 20.7805 8.0711 20.5546C7.95065 20.3288 7.86784 20.0615 7.82267 19.7529C7.77751 19.4443 7.74739 19.1808 7.73234 18.9625C7.72481 18.7442 7.72105 18.4167 7.72105 17.9801C7.72105 17.5434 7.72481 17.216 7.73234 16.9977C7.74739 16.7794 7.77751 16.5159 7.82267 16.2072C7.86784 15.8986 7.95065 15.6313 8.0711 15.4055C8.19154 15.1797 8.34963 14.9689 8.54536 14.7732C9.13254 14.186 9.87781 13.8924 10.7812 13.8924C11.6845 13.8924 12.4298 14.186 13.017 14.7732C13.2127 14.9689 13.3708 15.1797 13.4912 15.4055C13.6117 15.6313 13.6945 15.8986 13.7397 16.2072C13.7848 16.5159 13.8112 16.7794 13.8187 16.9977ZM11.7974 19.369C11.8426 19.1206 11.8652 18.6576 11.8652 17.9801C11.8652 17.3025 11.8426 16.8396 11.7974 16.5912C11.7523 16.3352 11.677 16.1395 11.5716 16.004C11.3909 15.7706 11.1275 15.6539 10.7812 15.6539C10.4349 15.6539 10.1714 15.7706 9.99073 16.004C9.88534 16.1395 9.81006 16.3352 9.76489 16.5912C9.71972 16.8396 9.69714 17.3025 9.69714 17.9801C9.69714 18.6576 9.71972 19.1206 9.76489 19.369C9.81006 19.6174 9.88534 19.8094 9.99073 19.9449C10.1714 20.1858 10.4349 20.3062 10.7812 20.3062C11.1275 20.3062 11.3909 20.1858 11.5716 19.9449C11.677 19.8094 11.7523 19.6174 11.7974 19.369ZM22.7015 22H20.7254V18.1494L19.5849 20.1368H18.3202L17.1797 18.1494V22H15.2036V13.9601H17.1459L18.9526 17.5058L20.7593 13.9601H22.7015V22ZM30.6015 22H28.6254V17.6187L26.0509 22H24.3232V13.9601H26.2993V18.3414L28.8739 13.9601H30.6015V22ZM38.0677 19.448C37.9247 20.3062 37.5784 20.9574 37.0289 21.4015C36.4868 21.8457 35.8206 22.0678 35.0302 22.0678C34.1268 22.0678 33.3816 21.7742 32.7944 21.187C32.5987 20.9913 32.4406 20.7805 32.3201 20.5546C32.1997 20.3288 32.1169 20.0615 32.0717 19.7529C32.0265 19.4443 31.9964 19.1808 31.9814 18.9625C31.9738 18.7442 31.9701 18.4167 31.9701 17.9801C31.9701 17.5434 31.9738 17.216 31.9814 16.9977C31.9964 16.7794 32.0265 16.5159 32.0717 16.2072C32.1169 15.8986 32.1997 15.6313 32.3201 15.4055C32.4406 15.1797 32.5987 14.9689 32.7944 14.7732C33.3816 14.186 34.1268 13.8924 35.0302 13.8924C35.8206 13.8924 36.4868 14.1145 37.0289 14.5586C37.5784 15.0028 37.9247 15.6539 38.0677 16.5121H36.0578C35.8997 15.94 35.5571 15.6539 35.0302 15.6539C34.6839 15.6539 34.4242 15.7668 34.251 15.9927C34.1456 16.1282 34.0666 16.3277 34.0139 16.5912C33.9687 16.8471 33.9462 17.3101 33.9462 17.9801C33.9462 18.6501 33.9687 19.1168 34.0139 19.3803C34.0666 19.6362 34.1456 19.8319 34.251 19.9674C34.4242 20.1933 34.6839 20.3062 35.0302 20.3062C35.5571 20.3062 35.8997 20.0201 36.0578 19.448H38.0677ZM44.9488 19.448C44.8057 20.3062 44.4594 20.9574 43.9099 21.4015C43.3679 21.8457 42.7017 22.0678 41.9112 22.0678C41.0079 22.0678 40.2626 21.7742 39.6754 21.187C39.4797 20.9913 39.3216 20.7805 39.2012 20.5546C39.0807 20.3288 38.9979 20.0615 38.9527 19.7529C38.9076 19.4443 38.8774 19.1808 38.8624 18.9625C38.8549 18.7442 38.8511 18.4167 38.8511 17.9801C38.8511 17.5434 38.8549 17.216 38.8624 16.9977C38.8774 16.7794 38.9076 16.5159 38.9527 16.2072C38.9979 15.8986 39.0807 15.6313 39.2012 15.4055C39.3216 15.1797 39.4797 14.9689 39.6754 14.7732C40.2626 14.186 41.0079 13.8924 41.9112 13.8924C42.7017 13.8924 43.3679 14.1145 43.9099 14.5586C44.4594 15.0028 44.8057 15.6539 44.9488 16.5121H42.9388C42.7807 15.94 42.4382 15.6539 41.9112 15.6539C41.5649 15.6539 41.3052 15.7668 41.1321 15.9927C41.0267 16.1282 40.9476 16.3277 40.8949 16.5912C40.8498 16.8471 40.8272 17.3101 40.8272 17.9801C40.8272 18.6501 40.8498 19.1168 40.8949 19.3803C40.9476 19.6362 41.0267 19.8319 41.1321 19.9674C41.3052 20.1933 41.5649 20.3062 41.9112 20.3062C42.4382 20.3062 42.7807 20.0201 42.9388 19.448H44.9488ZM52.4422 22H50.3758L50.0031 20.8031H47.5302L47.135 22H45.0686L47.9932 13.9601H49.5176L52.4422 22ZM49.4837 19.1544L48.8062 17.009L48.0835 19.1544H49.4837ZM58.4531 14.728C58.9424 15.2324 59.1871 15.8384 59.1871 16.546C59.1871 17.2536 58.9424 17.8634 58.4531 18.3753C57.9638 18.8797 57.2938 19.1318 56.4432 19.1318H55.2349V22H53.2588V13.9601H56.4432C57.2938 13.9601 57.9638 14.2161 58.4531 14.728ZM56.9739 17.1219C57.132 16.9563 57.211 16.7643 57.211 16.546C57.211 16.3277 57.132 16.1395 56.9739 15.9814C56.8158 15.8158 56.6088 15.733 56.3528 15.733H55.2349V17.359H56.3528C56.6088 17.359 56.8158 17.28 56.9739 17.1219Z" fill="#FF5600"/>
</svg>
