<svg width="20" height="26" viewBox="0 0 20 26" fill="none" xmlns="http://www.w3.org/2000/svg">
<path d="M14 19H10C9.73478 19 9.48043 18.8946 9.29289 18.7071C9.10536 18.5196 9 18.2652 9 18C9 17.7348 9.10536 17.4804 9.29289 17.2929C9.48043 17.1054 9.73478 17 10 17H14C14.2652 17 14.5196 17.1054 14.7071 17.2929C14.8946 17.4804 15 17.7348 15 18C15 18.2652 14.8946 18.5196 14.7071 18.7071C14.5196 18.8946 14.2652 19 14 19ZM19 20V8C19 5.243 16.757 3 14 3H13.829C13.6214 2.41549 13.2381 1.90951 12.7316 1.55144C12.2251 1.19338 11.6203 1.00076 11 1L9 1C8.37973 1.00076 7.77487 1.19338 7.26839 1.55144C6.7619 1.90951 6.37858 2.41549 6.171 3H6C3.243 3 1 5.243 1 8V20C1 22.757 3.243 25 6 25H14C16.757 25 19 22.757 19 20ZM7 5C7.552 5 8 4.553 8 4C8 3.447 8.449 3 9 3H11C11.551 3 12 3.448 12 4C12 4.552 12.448 5 13 5H14C15.654 5 17 6.346 17 8V20C17 21.654 15.654 23 14 23H6C4.346 23 3 21.654 3 20V8C3 6.346 4.346 5 6 5H7ZM6 17C5.73478 17 5.48043 17.1054 5.29289 17.2929C5.10536 17.4804 5 17.7348 5 18C5 18.2652 5.10536 18.5196 5.29289 18.7071C5.48043 18.8946 5.73478 19 6 19C6.26522 19 6.51957 18.8946 6.70711 18.7071C6.89464 18.5196 7 18.2652 7 18C7 17.7348 6.89464 17.4804 6.70711 17.2929C6.51957 17.1054 6.26522 17 6 17ZM15 14C15 13.7348 14.8946 13.4804 14.7071 13.2929C14.5196 13.1054 14.2652 13 14 13H10C9.73478 13 9.48043 13.1054 9.29289 13.2929C9.10536 13.4804 9 13.7348 9 14C9 14.2652 9.10536 14.5196 9.29289 14.7071C9.48043 14.8946 9.73478 15 10 15H14C14.2652 15 14.5196 14.8946 14.7071 14.7071C14.8946 14.5196 15 14.2652 15 14ZM6 13C5.73478 13 5.48043 13.1054 5.29289 13.2929C5.10536 13.4804 5 13.7348 5 14C5 14.2652 5.10536 14.5196 5.29289 14.7071C5.48043 14.8946 5.73478 15 6 15C6.26522 15 6.51957 14.8946 6.70711 14.7071C6.89464 14.5196 7 14.2652 7 14C7 13.7348 6.89464 13.4804 6.70711 13.2929C6.51957 13.1054 6.26522 13 6 13ZM15 10C15 9.73478 14.8946 9.48043 14.7071 9.29289C14.5196 9.10536 14.2652 9 14 9H10C9.73478 9 9.48043 9.10536 9.29289 9.29289C9.10536 9.48043 9 9.73478 9 10C9 10.2652 9.10536 10.5196 9.29289 10.7071C9.48043 10.8946 9.73478 11 10 11H14C14.2652 11 14.5196 10.8946 14.7071 10.7071C14.8946 10.5196 15 10.2652 15 10ZM6 9C5.73478 9 5.48043 9.10536 5.29289 9.29289C5.10536 9.48043 5 9.73478 5 10C5 10.2652 5.10536 10.5196 5.29289 10.7071C5.48043 10.8946 5.73478 11 6 11C6.26522 11 6.51957 10.8946 6.70711 10.7071C6.89464 10.5196 7 10.2652 7 10C7 9.73478 6.89464 9.48043 6.70711 9.29289C6.51957 9.10536 6.26522 9 6 9Z" fill="#1D5DEB" stroke="white" stroke-width="0.3"/>
</svg>
