<svg width="17" height="23" viewBox="0 0 17 23" fill="none" xmlns="http://www.w3.org/2000/svg">
<path d="M16.1712 22.9699C15.5915 23.0139 15.177 22.6233 15.1175 22.1388C14.8739 20.1599 13.992 18.1418 12.9732 17.2342L9.21909 21.6841C8.85935 22.1101 8.14176 22.1101 7.78296 21.6841L3.98729 17.1796C3.01004 18.1418 2.12722 20.159 1.88361 22.1388C1.87096 22.2658 1.8334 22.389 1.77312 22.501C1.71285 22.6131 1.6311 22.7118 1.53266 22.7913C1.43422 22.8709 1.32109 22.9297 1.19992 22.9642C1.07875 22.9988 0.951987 23.0084 0.827085 22.9926C0.702182 22.9768 0.581663 22.9358 0.472613 22.872C0.363563 22.8083 0.268184 22.7231 0.192086 22.6214C0.115988 22.5197 0.0607062 22.4037 0.0294919 22.28C-0.00172238 22.1564 -0.00823916 22.0277 0.010325 21.9014C0.241653 20.0173 1.10748 17.2887 2.78249 15.7962C3.14481 15.4753 3.61366 15.3056 4.09448 15.3214C4.5753 15.3372 5.03232 15.5373 5.37337 15.8814L8.5015 19.5893L11.5786 15.9369C12.334 15.1672 13.4727 15.1279 14.2205 15.7971C15.8946 17.2897 16.7604 20.0182 16.9927 21.9024C17.0569 22.427 16.6924 22.9316 16.1731 22.9708L16.1712 22.9699ZM0.946969 3.4947C0.946969 2.56029 1.55881 1.73885 2.44541 1.48323L6.8973 0.200333C7.9499 -0.0667777 9.0512 -0.0667777 10.1038 0.200333L14.5557 1.48323C14.9555 1.5987 15.3115 1.83394 15.5772 2.1581C15.8429 2.48227 16.0058 2.88026 16.0446 3.29991C16.0833 3.71956 15.9962 4.1413 15.7946 4.50987C15.5929 4.87845 15.2861 5.17666 14.9145 5.36543L14.1657 5.74456V7.65933C14.1657 10.8273 11.6249 13.4037 8.50055 13.4037C5.3762 13.4037 2.83537 10.8273 2.83537 7.65933V5.74456L2.08662 5.36543C1.74405 5.1917 1.45598 4.92465 1.25469 4.59423C1.0534 4.26381 0.946844 3.88308 0.946969 3.4947ZM12.2773 7.29074C11.3558 7.48796 10.0972 7.65933 8.50055 7.65933C6.90391 7.65933 5.6453 7.48796 4.72376 7.29074V7.65933C4.72376 9.77133 6.41765 11.4889 8.50055 11.4889C10.5835 11.4889 12.2773 9.77133 12.2773 7.65933V7.29074ZM6.61216 3.89202C6.61216 5.1663 8.07755 6.0088 8.5015 6.22325C8.92355 6.05092 10.3889 5.34054 10.3889 3.89202V2.50381C10.3889 2.41458 10.3611 2.32763 10.3096 2.25529C10.2581 2.18295 10.1854 2.12888 10.1019 2.10075L8.50055 1.56269L6.89919 2.10075C6.81553 2.12863 6.7427 2.18263 6.69114 2.25503C6.63959 2.32743 6.61194 2.41451 6.61216 2.50381V3.89202Z" fill="#1D5DEB"/>
</svg>
