<svg width="18" height="22" viewBox="0 0 18 22" fill="none" xmlns="http://www.w3.org/2000/svg">
<path d="M8.09999 13.2917V10.0833C8.09999 9.84022 8.19481 9.60706 8.36359 9.43515C8.53238 9.26324 8.76129 9.16667 8.99999 9.16667C9.23868 9.16667 9.4676 9.26324 9.63638 9.43515C9.80517 9.60706 9.89999 9.84022 9.89999 10.0833V13.2917C9.89999 13.5348 9.80517 13.7679 9.63638 13.9398C9.4676 14.1118 9.23868 14.2083 8.99999 14.2083C8.76129 14.2083 8.53238 14.1118 8.36359 13.9398C8.19481 13.7679 8.09999 13.5348 8.09999 13.2917ZM8.99999 15.5833C8.82264 15.5834 8.64705 15.619 8.48323 15.6882C8.31941 15.7574 8.17057 15.8588 8.04521 15.9865C7.91985 16.1143 7.82043 16.2659 7.75261 16.4329C7.6848 16.5998 7.64993 16.7786 7.64999 16.9592C7.65005 17.1399 7.68504 17.3187 7.75296 17.4856C7.82088 17.6524 7.9204 17.804 8.04585 17.9317C8.17129 18.0594 8.32019 18.1607 8.48406 18.2297C8.64793 18.2988 8.82354 18.3343 9.00089 18.3342C9.35905 18.3341 9.70249 18.1891 9.95567 17.9311C10.2088 17.673 10.351 17.3231 10.3509 16.9583C10.3508 16.5935 10.2084 16.2437 9.95503 15.9859C9.70169 15.728 9.35815 15.5832 8.99999 15.5833ZM18 9.61125V17.4167C18 19.9439 15.9813 22 13.5 22H4.49999C2.0187 22 0 19.9439 0 17.4167V4.58333C0 2.05608 2.0187 0 4.49999 0H8.56349C10.2465 0 11.8278 0.667333 13.0185 1.87917L16.155 5.07375C16.7418 5.66825 17.207 6.3754 17.5237 7.15426C17.8404 7.93313 18.0023 8.76824 18 9.61125ZM11.745 3.17533C11.4633 2.88806 11.1455 2.63995 10.8 2.43742V6.41667C10.8 6.92175 11.2041 7.33333 11.7 7.33333H15.6069C15.4083 6.98126 15.1646 6.6576 14.8824 6.37083L11.7459 3.17625L11.745 3.17533ZM16.2 9.61125C16.2 9.46183 16.1928 9.31333 16.1793 9.16667H11.7C10.2114 9.16667 8.99999 7.93283 8.99999 6.41667V1.85442C8.85489 1.84047 8.70923 1.83343 8.56349 1.83333H4.49999C3.0114 1.83333 1.8 3.06717 1.8 4.58333V17.4167C1.8 18.9328 3.0114 20.1667 4.49999 20.1667H13.5C14.9886 20.1667 16.2 18.9328 16.2 17.4167V9.61125Z" fill="#1D5DEB"/>
</svg>
