<svg width="20" height="20" viewBox="0 0 20 20" fill="none" xmlns="http://www.w3.org/2000/svg">
<path d="M15.8333 0H4.16667C3.062 0.00132321 2.00296 0.440735 1.22185 1.22185C0.440735 2.00296 0.00132321 3.062 0 4.16667L0 15.8333C0.00132321 16.938 0.440735 17.997 1.22185 18.7782C2.00296 19.5593 3.062 19.9987 4.16667 20H15.8333C16.938 19.9987 17.997 19.5593 18.7782 18.7782C19.5593 17.997 19.9987 16.938 20 15.8333V4.16667C19.9987 3.062 19.5593 2.00296 18.7782 1.22185C17.997 0.440735 16.938 0.00132321 15.8333 0ZM4.16667 1.66667H15.8333C16.4964 1.66667 17.1323 1.93006 17.6011 2.3989C18.0699 2.86774 18.3333 3.50363 18.3333 4.16667V15.8333C18.3319 16.2046 18.2464 16.5707 18.0833 16.9042L10.4475 9.26833C10.0606 8.88131 9.6012 8.57429 9.0956 8.36483C8.59001 8.15537 8.0481 8.04756 7.50083 8.04756C6.95357 8.04756 6.41166 8.15537 5.90606 8.36483C5.40047 8.57429 4.94109 8.88131 4.55417 9.26833L1.66667 12.155V4.16667C1.66667 3.50363 1.93006 2.86774 2.3989 2.3989C2.86774 1.93006 3.50363 1.66667 4.16667 1.66667ZM4.16667 18.3333C3.50363 18.3333 2.86774 18.0699 2.3989 17.6011C1.93006 17.1323 1.66667 16.4964 1.66667 15.8333V14.5117L5.73167 10.4467C5.96383 10.2144 6.2395 10.0301 6.54292 9.90432C6.84634 9.77858 7.17156 9.71387 7.5 9.71387C7.82844 9.71387 8.15366 9.77858 8.45708 9.90432C8.7605 10.0301 9.03617 10.2144 9.26833 10.4467L16.9042 18.0833C16.5707 18.2464 16.2046 18.3319 15.8333 18.3333H4.16667Z" fill="#1D5DEB"/>
<path d="M13.3337 8.75008C13.9105 8.75008 14.4744 8.57902 14.9541 8.25854C15.4337 7.93805 15.8076 7.48253 16.0283 6.94958C16.2491 6.41662 16.3068 5.83018 16.1943 5.2644C16.0817 4.69862 15.804 4.17892 15.3961 3.77102C14.9882 3.36312 14.4685 3.08533 13.9027 2.97279C13.3369 2.86025 12.7505 2.91801 12.2175 3.13877C11.6845 3.35952 11.229 3.73336 10.9085 4.213C10.5881 4.69265 10.417 5.25655 10.417 5.83342C10.417 6.60696 10.7243 7.34883 11.2713 7.89581C11.8182 8.44279 12.5601 8.75008 13.3337 8.75008ZM13.3337 4.58342C13.5809 4.58342 13.8226 4.65673 14.0281 4.79408C14.2337 4.93143 14.3939 5.12665 14.4885 5.35506C14.5831 5.58347 14.6079 5.8348 14.5596 6.07728C14.5114 6.31976 14.3924 6.54248 14.2175 6.7173C14.0427 6.89212 13.82 7.01117 13.5775 7.0594C13.335 7.10763 13.0837 7.08288 12.8553 6.98827C12.6269 6.89366 12.4317 6.73344 12.2943 6.52788C12.157 6.32232 12.0837 6.08064 12.0837 5.83342C12.0837 5.5019 12.2154 5.18395 12.4498 4.94953C12.6842 4.71511 13.0021 4.58342 13.3337 4.58342Z" fill="#1D5DEB"/>
</svg>
