<svg width="19" height="19" viewBox="0 0 19 19" fill="none" xmlns="http://www.w3.org/2000/svg">
<path d="M17.7693 8.67943C17.5641 8.67943 17.3673 8.59805 17.2222 8.45319C17.0771 8.30832 16.9955 8.11184 16.9955 7.90697C16.9939 6.26853 16.3412 4.69765 15.1807 3.5391C14.0202 2.38054 12.4467 1.72894 10.8055 1.72731C10.6003 1.72731 10.4035 1.64592 10.2584 1.50106C10.1133 1.35619 10.0318 1.15972 10.0318 0.954848C10.0318 0.749979 10.1133 0.553501 10.2584 0.408637C10.4035 0.263773 10.6003 0.18239 10.8055 0.18239C12.857 0.184639 14.8237 0.999199 16.2743 2.44735C17.7249 3.89551 18.5408 5.85898 18.543 7.90697C18.543 8.11184 18.4615 8.30832 18.3164 8.45319C18.1713 8.59805 17.9745 8.67943 17.7693 8.67943ZM15.448 7.90697C15.448 6.67776 14.9589 5.4989 14.0883 4.62971C13.2176 3.76053 12.0368 3.27222 10.8055 3.27222C10.6003 3.27222 10.4035 3.35361 10.2584 3.49847C10.1133 3.64334 10.0318 3.83981 10.0318 4.04468C10.0318 4.24955 10.1133 4.44603 10.2584 4.59089C10.4035 4.73576 10.6003 4.81714 10.8055 4.81714C11.6264 4.81714 12.4136 5.14268 12.994 5.72213C13.5745 6.30159 13.9005 7.0875 13.9005 7.90697C13.9005 8.11184 13.9821 8.30832 14.1272 8.45319C14.2723 8.59805 14.4691 8.67943 14.6743 8.67943C14.8795 8.67943 15.0763 8.59805 15.2214 8.45319C15.3665 8.30832 15.448 8.11184 15.448 7.90697ZM17.1371 17.3032L17.8413 16.4929C18.2894 16.044 18.5411 15.4361 18.5411 14.8023C18.5411 14.1686 18.2894 13.5607 17.8413 13.1118C17.8173 13.0879 15.9556 11.658 15.9556 11.658C15.5088 11.2334 14.9153 10.997 14.2985 10.9979C13.6816 10.9987 13.0888 11.2368 12.6432 11.6627L11.1684 12.9032C9.96461 12.4058 8.87107 11.6759 7.95062 10.7554C7.03016 9.83492 6.30093 8.74195 5.80479 7.53928L7.04279 6.07161C7.46968 5.62681 7.70844 5.03488 7.70945 4.41886C7.71046 3.80285 7.47363 3.21014 7.0482 2.76395C7.0482 2.76395 5.61444 0.907728 5.59046 0.883782C5.149 0.440196 4.55044 0.187814 3.92413 0.181165C3.29781 0.174516 2.69402 0.414135 2.24321 0.848249L1.3534 1.62071C-3.90347 7.70923 7.41651 18.923 13.7164 18.7214C14.3526 18.7251 14.983 18.6015 15.5705 18.3579C16.1581 18.1143 16.6907 17.7557 17.1371 17.3032Z" fill="white"/>
</svg>
