<svg width="60" height="60" viewBox="0 0 60 60" fill="none" xmlns="http://www.w3.org/2000/svg">
<path d="M50 0H10C7.34784 0 4.8043 1.05358 2.92893 2.92897C1.05357 4.80436 0 7.34794 0 10.0001L0 40.0006C0 42.6528 1.05357 45.1963 2.92893 47.0717C4.8043 48.9471 7.34784 50.0007 10 50.0007H17.25L28.3775 59.4083C28.8289 59.7904 29.4011 60 29.9925 60C30.5839 60 31.1561 59.7904 31.6075 59.4083L42.75 50.0007H50C52.6522 50.0007 55.1957 48.9471 57.0711 47.0717C58.9464 45.1963 60 42.6528 60 40.0006V10.0001C60 7.34794 58.9464 4.80436 57.0711 2.92897C55.1957 1.05358 52.6522 0 50 0ZM55 40.0006C55 41.3267 54.4732 42.5985 53.5355 43.5361C52.5979 44.4738 51.3261 45.0006 50 45.0006H42.75C41.5682 45.001 40.4248 45.4199 39.5225 46.1832L30 54.2258L20.4825 46.1832C19.5789 45.4188 18.4335 44.9998 17.25 45.0006H10C8.67392 45.0006 7.40215 44.4738 6.46447 43.5361C5.52678 42.5985 5 41.3267 5 40.0006V10.0001C5 8.67404 5.52678 7.40225 6.46447 6.46456C7.40215 5.52686 8.67392 5.00007 10 5.00007H50C51.3261 5.00007 52.5979 5.52686 53.5355 6.46456C54.4732 7.40225 55 8.67404 55 10.0001V40.0006Z" fill="#1D5DEB"/>
<path d="M17.5 17.5002H30C30.663 17.5002 31.2989 17.2368 31.7678 16.7679C32.2366 16.2991 32.5 15.6632 32.5 15.0002C32.5 14.3371 32.2366 13.7012 31.7678 13.2324C31.2989 12.7635 30.663 12.5001 30 12.5001H17.5C16.837 12.5001 16.2011 12.7635 15.7322 13.2324C15.2634 13.7012 15 14.3371 15 15.0002C15 15.6632 15.2634 16.2991 15.7322 16.7679C16.2011 17.2368 16.837 17.5002 17.5 17.5002ZM42.5 22.5003H17.5C16.837 22.5003 16.2011 22.7637 15.7322 23.2325C15.2634 23.7014 15 24.3372 15 25.0003C15 25.6633 15.2634 26.2992 15.7322 26.7681C16.2011 27.2369 16.837 27.5003 17.5 27.5003H42.5C43.163 27.5003 43.7989 27.2369 44.2678 26.7681C44.7366 26.2992 45 25.6633 45 25.0003C45 24.3372 44.7366 23.7014 44.2678 23.2325C43.7989 22.7637 43.163 22.5003 42.5 22.5003ZM42.5 32.5004H17.5C16.837 32.5004 16.2011 32.7638 15.7322 33.2326C15.2634 33.7015 15 34.3374 15 35.0004C15 35.6635 15.2634 36.2994 15.7322 36.7682C16.2011 37.2371 16.837 37.5005 17.5 37.5005H42.5C43.163 37.5005 43.7989 37.2371 44.2678 36.7682C44.7366 36.2994 45 35.6635 45 35.0004C45 34.3374 44.7366 33.7015 44.2678 33.2326C43.7989 32.7638 43.163 32.5004 42.5 32.5004Z" fill="#1D5DEB"/>
</svg>
