<svg width="60" height="60" viewBox="0 0 60 60" fill="none" xmlns="http://www.w3.org/2000/svg">
<path d="M30 29.9513C31.9778 29.9513 33.9112 29.3655 35.5557 28.2679C37.2002 27.1703 38.4819 25.6103 39.2388 23.7851C39.9957 21.9599 40.1937 19.9515 39.8079 18.0138C39.422 16.0762 38.4696 14.2964 37.0711 12.8994C35.6725 11.5025 33.8907 10.5511 31.9509 10.1657C30.0111 9.78029 28.0004 9.9781 26.1732 10.7341C24.3459 11.4902 22.7841 12.7704 21.6853 14.4131C20.5865 16.0557 20 17.987 20 19.9625C20 22.6117 21.0536 25.1524 22.9289 27.0257C24.8043 28.8989 27.3478 29.9513 30 29.9513ZM30 14.9682C30.9889 14.9682 31.9556 15.2611 32.7779 15.8099C33.6001 16.3587 34.241 17.1387 34.6194 18.0513C34.9978 18.9639 35.0969 19.9681 34.9039 20.9369C34.711 21.9057 34.2348 22.7956 33.5355 23.4941C32.8363 24.1926 31.9454 24.6683 30.9755 24.861C30.0055 25.0537 29.0002 24.9548 28.0866 24.5768C27.173 24.1987 26.3921 23.5586 25.8427 22.7373C25.2932 21.916 25 20.9503 25 19.9625C25 18.638 25.5268 17.3676 26.4645 16.431C27.4021 15.4944 28.6739 14.9682 30 14.9682ZM40 54.9981L60 59.8627V33.6546C59.9995 32.0461 59.4807 30.4805 58.5203 29.1894C57.56 27.8982 56.2091 26.9501 54.6675 26.4852L49.4175 24.7372C49.8014 23.1796 49.997 21.5816 50 19.9775C50 14.6792 47.8929 9.59779 44.1421 5.85128C40.3914 2.10477 35.3043 0 30 0C24.6957 0 19.6086 2.10477 15.8579 5.85128C12.1071 9.59779 10 14.6792 10 19.9775C10.0074 20.9912 10.091 22.0029 10.25 23.0041C9.11467 22.552 7.88573 22.3847 6.67068 22.5168C5.45563 22.6489 4.29149 23.0764 3.28012 23.7618C2.26874 24.4473 1.44093 25.3699 0.869115 26.4489C0.297298 27.5279 -0.00110803 28.7305 3.0916e-06 29.9513V54.3039L19.9575 60L40 54.9981ZM19.3925 9.38444C22.2106 6.60945 26.0123 5.05923 29.9696 5.07149C33.9268 5.08375 37.7188 6.6575 40.5196 9.4499C43.3205 12.2423 44.9031 16.0271 44.9228 19.9798C44.9426 23.9326 43.3978 27.733 40.625 30.5531L30 40.9389L19.3925 30.5731C16.5797 27.7633 14.9995 23.9524 14.9995 19.9788C14.9995 16.0052 16.5797 12.1943 19.3925 9.38444ZM5 29.9513C4.99685 29.5394 5.09728 29.1334 5.2921 28.7704C5.48691 28.4074 5.76987 28.099 6.115 27.8736C6.47603 27.637 6.89195 27.497 7.32276 27.4673C7.75358 27.4376 8.18481 27.519 8.575 27.7038L12.16 28.9974C13.1191 30.8946 14.374 32.6276 15.8775 34.1316L30 47.9311L44.1425 34.1141C45.5331 32.7271 46.7124 31.1436 47.6425 29.4144L53.185 31.2648C53.707 31.414 54.1663 31.7288 54.4933 32.1618C54.8203 32.5947 54.9973 33.1223 54.9975 33.6646V53.5148L40 49.8539L20.05 54.8483L5 50.5431V29.9513Z" fill="#1D5DEB"/>
</svg>
