<svg width="60" height="60" viewBox="0 0 60 60" fill="none" xmlns="http://www.w3.org/2000/svg">
<path d="M30 40C28.0222 40 26.0888 39.4135 24.4443 38.3147C22.7998 37.2159 21.5181 35.6541 20.7612 33.8268C20.0043 31.9996 19.8063 29.9889 20.1921 28.0491C20.578 26.1093 21.5304 24.3275 22.9289 22.9289C24.3275 21.5304 26.1093 20.578 28.0491 20.1922C29.9889 19.8063 31.9996 20.0043 33.8268 20.7612C35.6541 21.5181 37.2159 22.7998 38.3147 24.4443C39.4135 26.0888 40 28.0222 40 30C40 32.6522 38.9464 35.1957 37.0711 37.0711C35.1957 38.9464 32.6522 40 30 40ZM30 25C29.0111 25 28.0444 25.2932 27.2221 25.8427C26.3999 26.3921 25.759 27.173 25.3806 28.0866C25.0022 29.0002 24.9031 30.0056 25.0961 30.9755C25.289 31.9454 25.7652 32.8363 26.4645 33.5355C27.1637 34.2348 28.0546 34.711 29.0245 34.9039C29.9945 35.0969 30.9998 34.9978 31.9134 34.6194C32.827 34.241 33.6079 33.6001 34.1573 32.7779C34.7068 31.9556 35 30.9889 35 30C35 28.6739 34.4732 27.4022 33.5355 26.4645C32.5979 25.5268 31.3261 25 30 25ZM45 57.5C45 53.5218 43.4197 49.7064 40.6066 46.8934C37.7936 44.0804 33.9782 42.5 30 42.5C26.0218 42.5 22.2064 44.0804 19.3934 46.8934C16.5804 49.7064 15 53.5218 15 57.5C15 58.163 15.2634 58.7989 15.7322 59.2678C16.2011 59.7366 16.837 60 17.5 60C18.163 60 18.7989 59.7366 19.2678 59.2678C19.7366 58.7989 20 58.163 20 57.5C20 54.8478 21.0536 52.3043 22.9289 50.4289C24.8043 48.5536 27.3478 47.5 30 47.5C32.6522 47.5 35.1957 48.5536 37.0711 50.4289C38.9464 52.3043 40 54.8478 40 57.5C40 58.163 40.2634 58.7989 40.7322 59.2678C41.2011 59.7366 41.837 60 42.5 60C43.163 60 43.7989 59.7366 44.2678 59.2678C44.7366 58.7989 45 58.163 45 57.5ZM45 20C43.0222 20 41.0888 19.4135 39.4443 18.3147C37.7998 17.2159 36.5181 15.6541 35.7612 13.8268C35.0043 11.9996 34.8063 9.98891 35.1921 8.0491C35.578 6.10929 36.5304 4.32746 37.9289 2.92894C39.3275 1.53041 41.1093 0.578004 43.0491 0.192152C44.9889 -0.193701 46.9996 0.00433281 48.8268 0.761209C50.6541 1.51809 52.2159 2.79981 53.3147 4.4443C54.4135 6.08879 55 8.02219 55 10C55 12.6522 53.9464 15.1957 52.0711 17.0711C50.1957 18.9464 47.6522 20 45 20ZM45 5C44.0111 5 43.0444 5.29325 42.2221 5.84266C41.3999 6.39206 40.759 7.17296 40.3806 8.08659C40.0022 9.00022 39.9031 10.0056 40.0961 10.9755C40.289 11.9454 40.7652 12.8363 41.4645 13.5355C42.1637 14.2348 43.0546 14.711 44.0245 14.9039C44.9945 15.0969 45.9998 14.9978 46.9134 14.6194C47.827 14.241 48.6079 13.6001 49.1573 12.7779C49.7068 11.9556 50 10.9889 50 10C50 8.67392 49.4732 7.40215 48.5355 6.46447C47.5979 5.52679 46.3261 5 45 5ZM60 37.5C59.996 33.523 58.4144 29.71 55.6022 26.8978C52.79 24.0856 48.977 22.504 45 22.5C44.337 22.5 43.7011 22.7634 43.2322 23.2322C42.7634 23.7011 42.5 24.337 42.5 25C42.5 25.663 42.7634 26.2989 43.2322 26.7678C43.7011 27.2366 44.337 27.5 45 27.5C47.6522 27.5 50.1957 28.5536 52.0711 30.4289C53.9464 32.3043 55 34.8478 55 37.5C55 38.163 55.2634 38.7989 55.7322 39.2678C56.2011 39.7366 56.837 40 57.5 40C58.163 40 58.7989 39.7366 59.2678 39.2678C59.7366 38.7989 60 38.163 60 37.5ZM15 20C13.0222 20 11.0888 19.4135 9.4443 18.3147C7.79981 17.2159 6.51808 15.6541 5.7612 13.8268C5.00433 11.9996 4.8063 9.98891 5.19215 8.0491C5.578 6.10929 6.53041 4.32746 7.92893 2.92894C9.32746 1.53041 11.1093 0.578004 13.0491 0.192152C14.9889 -0.193701 16.9996 0.00433281 18.8268 0.761209C20.6541 1.51809 22.2159 2.79981 23.3147 4.4443C24.4135 6.08879 25 8.02219 25 10C25 12.6522 23.9464 15.1957 22.0711 17.0711C20.1957 18.9464 17.6522 20 15 20ZM15 5C14.0111 5 13.0444 5.29325 12.2221 5.84266C11.3999 6.39206 10.759 7.17296 10.3806 8.08659C10.0022 9.00022 9.90315 10.0056 10.0961 10.9755C10.289 11.9454 10.7652 12.8363 11.4645 13.5355C12.1637 14.2348 13.0546 14.711 14.0245 14.9039C14.9945 15.0969 15.9998 14.9978 16.9134 14.6194C17.827 14.241 18.6079 13.6001 19.1573 12.7779C19.7068 11.9556 20 10.9889 20 10C20 8.67392 19.4732 7.40215 18.5355 6.46447C17.5979 5.52679 16.3261 5 15 5ZM5 37.5C5 34.8478 6.05357 32.3043 7.92893 30.4289C9.8043 28.5536 12.3478 27.5 15 27.5C15.663 27.5 16.2989 27.2366 16.7678 26.7678C17.2366 26.2989 17.5 25.663 17.5 25C17.5 24.337 17.2366 23.7011 16.7678 23.2322C16.2989 22.7634 15.663 22.5 15 22.5C11.023 22.504 7.20997 24.0856 4.39778 26.8978C1.5856 29.71 0.00397108 33.523 0 37.5C0 38.163 0.263392 38.7989 0.732233 39.2678C1.20107 39.7366 1.83696 40 2.5 40C3.16304 40 3.79893 39.7366 4.26777 39.2678C4.73661 38.7989 5 38.163 5 37.5Z" fill="#1D5DEB"/>
</svg>
