<svg width="31" height="31" viewBox="0 0 31 31" fill="none" xmlns="http://www.w3.org/2000/svg">
<path d="M30.4505 15.2253C30.4505 6.81669 23.6339 0.00012207 15.2252 0.00012207C6.81657 0.00012207 0 6.81669 0 15.2253C0 23.634 6.81657 30.4506 15.2252 30.4506C23.6339 30.4506 30.4505 23.634 30.4505 15.2253Z" fill="#0077FF"/>
<path d="M15.9858 20.9348C10.1337 20.9348 6.79705 17.0127 6.66016 10.4758H9.60329C9.69741 15.2695 11.8534 17.2976 13.5646 17.7167V10.4758H16.328V14.6075C18.0135 14.4315 19.7931 12.5459 20.3919 10.4675H23.1469C22.9222 11.5433 22.4735 12.5623 21.8287 13.4606C21.184 14.359 20.357 15.1174 19.3995 15.6886C20.468 16.2095 21.4117 16.9465 22.1682 17.8508C22.9248 18.7551 23.477 19.8062 23.7885 20.9348H20.7513C20.1011 18.9486 18.4755 17.4066 16.328 17.1971V20.9348H15.9944H15.9858Z" fill="white"/>
</svg>
