<svg width="60" height="60" viewBox="0 0 60 60" fill="none" xmlns="http://www.w3.org/2000/svg">
<path d="M59.8625 31.6725L52.2847 10.0225C51.7701 8.55494 50.8125 7.28334 49.5443 6.38324C48.276 5.48313 46.7596 4.99894 45.2044 4.9975H32.5014V2.5C32.5014 1.83696 32.2379 1.20107 31.7691 0.732233C31.3002 0.263392 30.6643 0 30.0013 0C29.3382 0 28.7023 0.263392 28.2334 0.732233C27.7645 1.20107 27.5011 1.83696 27.5011 2.5V5H14.7981C13.2432 5.00126 11.727 5.48509 10.4588 6.38472C9.19056 7.28434 8.23285 8.55541 7.71782 10.0225L0.140006 31.6725C0.047502 31.9375 0 33.2525 0 33.2525C0 39.5175 4.6777 44.67 10.6504 44.9825C12.1779 45.0703 13.707 44.8428 15.1427 44.3142C16.5784 43.7856 17.89 42.9672 18.9958 41.91C20.1012 40.8574 20.9818 39.5915 21.5842 38.189C22.1867 36.7865 22.4985 35.2764 22.5009 33.75C22.5009 33.75 22.4484 31.92 22.3484 31.645L14.4856 10.02C14.5881 10.0075 14.6931 10 14.7981 10H27.5011V55H12.5005C11.8375 55 11.2015 55.2634 10.7327 55.7322C10.2638 56.2011 10.0004 56.837 10.0004 57.5C10.0004 58.163 10.2638 58.7989 10.7327 59.2678C11.2015 59.7366 11.8375 60 12.5005 60H47.502C48.165 60 48.801 59.7366 49.2698 59.2678C49.7387 58.7989 50.0021 58.163 50.0021 57.5C50.0021 56.837 49.7387 56.2011 49.2698 55.7322C48.801 55.2634 48.165 55 47.502 55H32.5014V10H45.2044C45.3094 10 45.4144 10.005 45.5169 10.02L37.6516 31.645C37.5516 31.9175 37.4991 33.75 37.4991 33.75C37.5019 35.2764 37.8139 36.7863 38.4164 38.1888C39.0188 39.5912 39.8991 40.8571 41.0042 41.91C43.1168 43.915 45.5744 44.9825 49.3521 44.9825C55.3298 44.9825 60 39.5175 60 33.2525C60 33.2525 59.955 31.9375 59.8625 31.6725ZM10.9105 39.9925C8.20784 39.85 5.94525 37.7375 5.24522 35H17.3757C17.1257 36.2475 16.5007 37.385 15.5531 38.2825C14.9377 38.8694 14.2083 39.3238 13.4102 39.6175C12.612 39.9112 11.7621 40.038 10.913 39.99L10.9105 39.9925ZM16.4307 30H6.02275L11.128 15.4175L16.4307 30ZM48.8745 15.4175L53.9797 30H43.5718L48.8745 15.4175ZM49.0945 39.9925C48.2451 40.0395 47.3951 39.9123 46.5967 39.6186C45.7983 39.325 45.0684 38.8711 44.4519 38.285C43.5191 37.4059 42.8823 36.259 42.6293 35.0025H54.7598C54.0598 37.7375 51.7997 39.8525 49.097 39.995L49.0945 39.9925Z" fill="#1D5DEB"/>
</svg>
