<svg width="45" height="60" viewBox="0 0 45 60" fill="none" xmlns="http://www.w3.org/2000/svg">
<path d="M44.9999 52.5001V60H39.9999V52.5001C40.0067 51.0278 39.5775 49.5864 38.7665 48.3577C37.9555 47.1289 36.7989 46.1677 35.4424 45.5952L22.5 58.535L9.55757 45.5952C8.20075 46.1671 7.04376 47.1282 6.23265 48.3571C5.42153 49.586 4.99264 51.0276 5.00009 52.5001V60H0.000122196V52.5001C-0.0124249 49.6691 0.941622 46.9186 2.7045 44.7034C4.46738 42.4882 6.9335 40.941 9.69507 40.3177L11.0426 40.0077L22.5 51.4651L33.9574 40.0077L35.3049 40.3177C38.0665 40.941 40.5326 42.4882 42.2955 44.7034C44.0584 46.9186 45.0124 49.6691 44.9999 52.5001ZM7.50008 15.0005L2.50011 12.5005V5.00057L18.255 0.52312C21.042 -0.174373 23.958 -0.174373 26.745 0.52312L42.4999 5.00057V12.5005L37.4999 15.0005V22.5004C37.4999 30.7728 30.7725 37.5002 22.5 37.5002C14.2275 37.5002 7.50008 30.7728 7.50008 22.5004V15.0005ZM32.4999 19.0379C30.06 19.5529 26.7275 20.0004 22.5 20.0004C18.2725 20.0004 14.94 19.5529 12.5001 19.0379V22.5004C12.5001 28.0153 16.985 32.5003 22.5 32.5003C28.015 32.5003 32.4999 28.0153 32.4999 22.5004V19.0379ZM17.5 10.163C17.5 13.4905 21.38 15.6905 22.5025 16.2505C23.62 15.8005 27.5 13.9455 27.5 10.163V6.53806C27.4998 6.30506 27.4263 6.07802 27.2899 5.88912C27.1535 5.70022 26.9611 5.55904 26.74 5.48557L22.5 4.08058L18.26 5.48557C18.0385 5.55837 17.8457 5.69939 17.7092 5.88844C17.5727 6.07749 17.4994 6.30487 17.5 6.53806V10.163Z" fill="#1D5DEB"/>
</svg>
