<svg width="58" height="60" viewBox="0 0 58 60" fill="none" xmlns="http://www.w3.org/2000/svg">
<path d="M49.0742 23.7602C47.9768 21.8464 46.3936 20.2556 44.4843 19.1483C42.575 18.041 40.4072 17.4563 38.1995 17.4532H19.7669C17.5594 17.4568 15.3918 18.0417 13.4826 19.149C11.5734 20.2562 9.99007 21.8467 8.89223 23.7602L3.73671 32.7701C2.22484 35.419 1.42886 38.4153 1.427 41.4646V44.9835C1.42748 46.7403 1.89072 48.4661 2.77017 49.9874C3.64963 51.5088 4.91433 52.7721 6.43722 53.6505V54.9945C6.43722 56.322 6.96509 57.5952 7.90469 58.5339C8.84428 59.4726 10.1187 60 11.4474 60C12.7762 60 14.0506 59.4726 14.9902 58.5339C15.9298 57.5952 16.4577 56.322 16.4577 54.9945H41.5088C41.5088 56.322 42.0367 57.5952 42.9763 58.5339C43.9159 59.4726 45.1902 60 46.519 60C47.8478 60 49.1222 59.4726 50.0618 58.5339C51.0014 57.5952 51.5292 56.322 51.5292 54.9945V53.6505C53.0521 52.7721 54.3168 51.5088 55.1963 49.9874C56.0758 48.4661 56.539 46.7403 56.5395 44.9835V41.4646C56.5386 38.4149 55.7416 35.4181 54.2273 32.7701L49.0742 23.7602ZM13.2511 26.2429C13.9093 25.0964 14.8579 24.1431 16.0017 23.4788C17.1454 22.8146 18.444 22.4628 19.7669 22.4587H38.1995C39.5222 22.4624 40.8206 22.8141 41.964 23.4784C43.1074 24.1427 44.0555 25.0962 44.7128 26.2429L49.7181 34.9725H8.24842L13.2511 26.2429ZM51.5292 44.9835C51.5292 46.311 51.0014 47.5842 50.0618 48.5229C49.1222 49.4616 47.8478 49.989 46.519 49.989H11.4474C10.1187 49.989 8.84428 49.4616 7.90469 48.5229C6.96509 47.5842 6.43722 46.311 6.43722 44.9835V41.4646C6.43841 40.9677 6.46852 40.4714 6.52741 39.978H11.4474V42.4807C11.4474 43.1445 11.7114 43.7811 12.1812 44.2505C12.651 44.7198 13.2882 44.9835 13.9526 44.9835C14.617 44.9835 15.2541 44.7198 15.7239 44.2505C16.1937 43.7811 16.4577 43.1445 16.4577 42.4807V39.978H41.5088V42.4807C41.5088 43.1445 41.7727 43.7811 42.2425 44.2505C42.7123 44.7198 43.3495 44.9835 44.0139 44.9835C44.6783 44.9835 45.3155 44.7198 45.7853 44.2505C46.2551 43.7811 46.519 43.1445 46.519 42.4807V39.978H51.4391C51.498 40.4714 51.5281 40.9677 51.5292 41.4646V44.9835ZM57.7745 11.5693C56.9955 12.7187 55.9142 13.6312 54.6495 14.2063C53.3849 14.7815 51.986 14.9969 50.6067 14.829C49.2275 14.6611 47.9213 14.1163 46.8319 13.2546C45.7425 12.3929 44.9122 11.2477 44.4323 9.94497H13.5643C13.0843 11.2477 12.254 12.3929 11.1646 13.2546C10.0753 14.1163 8.76908 14.6611 7.38981 14.829C6.01053 14.9969 4.61162 14.7815 3.347 14.2063C2.08238 13.6312 1.00107 12.7187 0.22204 11.5693C-1.07811 9.23669 3.74673 10.0976 3.96217 9.94497C4.62657 9.94497 5.26376 9.68128 5.73355 9.21193C6.20335 8.74257 6.46729 8.10598 6.46729 7.44221C6.46729 6.77844 6.20335 6.14186 5.73355 5.6725C5.26376 5.20314 4.62657 4.93946 3.96217 4.93946H1.45706C-0.22888 4.93946 -0.108634 3.81823 0.22204 3.31518C1.00107 2.16571 2.08238 1.25321 3.347 0.678081C4.61162 0.102956 6.01053 -0.112504 7.38981 0.0554099C8.76908 0.223323 10.0753 0.768102 11.1646 1.6298C12.254 2.4915 13.0843 3.63673 13.5643 4.93946H44.4323C44.9122 3.63673 45.7425 2.4915 46.8319 1.6298C47.9213 0.768102 49.2275 0.223323 50.6067 0.0554099C51.986 -0.112504 53.3849 0.102956 54.6495 0.678081C55.9142 1.25321 56.9955 2.16571 57.7745 3.31518C59.0872 5.64774 54.2498 4.78679 54.0344 4.93946C53.37 4.93946 52.7328 5.20314 52.263 5.6725C51.7932 6.14186 51.5292 6.77844 51.5292 7.44221C51.5292 8.10598 51.7932 8.74257 52.263 9.21193C52.7328 9.68128 53.37 9.94497 54.0344 9.94497H56.5395C58.2254 9.94497 58.1052 11.0662 57.7745 11.5693Z" fill="#1D5DEB"/>
</svg>
