<svg width="57" height="60" viewBox="0 0 57 60" fill="none" xmlns="http://www.w3.org/2000/svg">
<path d="M36.8606 15C36.8606 6.7275 30.2483 0 22.1174 0C13.9865 0 7.37409 6.7275 7.37409 15C7.37409 23.2725 13.9865 30 22.1174 30C30.2483 30 36.8606 23.2725 36.8606 15ZM22.1174 25C16.6968 25 12.2885 20.515 12.2885 15C12.2885 9.485 16.6968 5 22.1174 5C27.538 5 31.9462 9.485 31.9462 15C31.9462 20.515 27.538 25 22.1174 25ZM22.0977 37.345C22.2648 38.715 21.3114 39.9625 19.9624 40.135C11.3843 41.225 4.91442 48.6875 4.91442 57.5C4.91442 58.88 3.81359 60 2.45721 60C1.10083 60 0 58.88 0 57.5C0 46.1725 8.32012 36.575 19.353 35.175C20.6848 35.0025 21.9257 35.975 22.0953 37.3475L22.0977 37.345ZM55.7713 47.8325L53.378 46.4275C53.7859 45.185 54.0611 43.88 54.0611 42.4975C54.0611 41.115 53.7884 39.81 53.378 38.5675L55.7713 37.1625C56.9459 36.4725 57.3489 34.9425 56.6707 33.7475C55.99 32.55 54.4911 32.1375 53.3141 32.8325L50.9233 34.2375C49.1909 32.2525 46.8836 30.8 44.2323 30.2525V27.5C44.2323 26.12 43.1314 25 41.7751 25C40.4187 25 39.3179 26.12 39.3179 27.5V30.2525C36.6665 30.8025 34.3592 32.255 32.6269 34.2375L30.236 32.8325C29.0565 32.14 27.5576 32.55 26.8794 33.7475C26.2013 34.945 26.6042 36.4725 27.7788 37.1625L30.1721 38.5675C29.7642 39.81 29.489 41.115 29.489 42.4975C29.489 43.88 29.7618 45.185 30.1721 46.4275L27.7788 47.8325C26.6042 48.5225 26.2013 50.0525 26.8794 51.2475C27.3365 52.05 28.1597 52.4975 29.0098 52.4975C29.4251 52.4975 29.8478 52.39 30.236 52.1625L32.6269 50.7575C34.3592 52.7425 36.6665 54.195 39.3179 54.7425V57.495C39.3179 58.875 40.4187 59.995 41.7751 59.995C43.1314 59.995 44.2323 58.875 44.2323 57.495V54.7425C46.8836 54.1925 49.1909 52.74 50.9233 50.7575L53.3141 52.1625C53.7024 52.39 54.125 52.4975 54.5403 52.4975C55.3905 52.4975 56.2161 52.05 56.6707 51.2475C57.3489 50.05 56.9459 48.5225 55.7713 47.8325ZM41.7751 49.9975C37.7108 49.9975 34.4034 46.6325 34.4034 42.4975C34.4034 38.3625 37.7108 34.9975 41.7751 34.9975C45.8393 34.9975 49.1467 38.3625 49.1467 42.4975C49.1467 46.6325 45.8393 49.9975 41.7751 49.9975Z" fill="#1D5DEB"/>
</svg>
