<svg width="45" height="60" viewBox="0 0 45 60" fill="none" xmlns="http://www.w3.org/2000/svg">
<path d="M45 15.6075C45.0034 14.2935 44.7463 12.9918 44.2433 11.7778C43.7404 10.5638 43.0017 9.4616 42.07 8.535L36.465 2.93C34.5866 1.0596 32.0457 0.00656863 29.395 0L7.49999 0C5.51087 0 3.60322 0.790176 2.1967 2.1967C0.790176 3.60322 0 5.51088 0 7.5V60H45V15.6075ZM38.535 12.07C38.6607 12.2064 38.7784 12.35 38.8875 12.5H32.5V6.1125C32.65 6.22161 32.7936 6.3393 32.93 6.465L38.535 12.07ZM5 55V7.5C5 6.83696 5.26339 6.20107 5.73223 5.73223C6.20107 5.26339 6.83695 5 7.49999 5H27.5V17.5H40V55H5ZM12.5 22.5H32.5V27.5H12.5V22.5ZM12.5 32.5H32.5V37.5H12.5V32.5ZM27.545 42.035L32.4575 42.95C31.98 45.5675 29.945 50 25.3375 50C23.529 49.9984 21.7761 49.3753 20.3725 48.235C19.5875 47.6775 19.3125 47.5 18.7175 47.5C17.8225 47.8394 17.0327 48.4085 16.4275 49.15L12.6775 45.8575C14.1897 44.0099 16.35 42.809 18.7175 42.5C20.3795 42.5198 21.9853 43.1053 23.27 44.16C23.8303 44.688 24.5677 44.9876 25.3375 45C26.895 45 27.5375 42.0675 27.545 42.035Z" fill="#1D5DEB"/>
</svg>
