<svg width="107" height="32" fill="none" xmlns="http://www.w3.org/2000/svg"><path d="M4.433 31.129h98.622c1.83 0 3.318-1.464 3.318-3.233V4.787c0-1.768-1.488-3.232-3.318-3.232H4.433c-1.83 0-3.318 1.464-3.318 3.232v23.11c0 1.768 1.488 3.232 3.318 3.232z" stroke="#7789B5"/><path d="M37.898 8.826c0 .643-.197 1.158-.585 1.543-.447.455-1.029.684-1.742.684a2.423 2.423 0 01-1.74-.692c-.48-.466-.718-1.038-.718-1.723 0-.684.239-1.256.717-1.718a2.41 2.41 0 011.74-.697c.34 0 .664.069.972.196.308.128.558.301.74.515l-.412.406c-.317-.365-.748-.545-1.3-.545-.496 0-.927.17-1.293.512-.362.342-.543.786-.543 1.331 0 .545.181.993.543 1.336.366.338.797.511 1.294.511.528 0 .971-.173 1.322-.515.23-.226.361-.538.396-.937H35.57v-.557h2.292c.028.12.035.237.035.35zm3.638-1.929h-2.153V8.36h1.94v.557h-1.94v1.463h2.153v.567h-2.763V6.33h2.763v.568zm2.566 4.05h-.61v-4.05h-1.32v-.568h3.251v.568h-1.321v4.05zm3.673 0V6.33h.609v4.618h-.609zm3.307 0h-.604v-4.05h-1.326v-.568h3.256v.568h-1.326v4.05zm7.481-.594c-.466.467-1.044.7-1.733.7-.694 0-1.272-.233-1.738-.7-.466-.466-.697-1.038-.697-1.715s.231-1.249.697-1.715c.466-.467 1.044-.7 1.738-.7.685 0 1.263.233 1.73.704.469.47.7 1.038.7 1.711 0 .677-.231 1.25-.697 1.715zm-3.02-.387c.35.346.778.52 1.287.52.504 0 .935-.174 1.283-.52.35-.346.527-.79.527-1.328s-.177-.982-.527-1.328a1.753 1.753 0 00-1.283-.519c-.51 0-.936.174-1.288.52-.35.345-.527.789-.527 1.327 0 .539.177.982.527 1.328zm4.572.981V6.33h.74l2.3 3.592h.026l-.026-.888V6.33h.608v4.618h-.635L60.72 7.18h-.027l.027.891v2.877h-.605z" fill="#7789B5" stroke="#7789B5" stroke-width=".16" stroke-miterlimit="10"/><path d="M54.244 17.692c-1.853 0-3.367 1.377-3.367 3.276 0 1.885 1.514 3.276 3.367 3.276 1.857 0 3.371-1.391 3.371-3.276 0-1.9-1.514-3.276-3.37-3.276zm0 5.262c-1.016 0-1.891-.82-1.891-1.986 0-1.181.875-1.986 1.891-1.986 1.017 0 1.896.805 1.896 1.986 0 1.166-.879 1.986-1.896 1.986zm-7.346-5.262c-1.857 0-3.367 1.377-3.367 3.276 0 1.885 1.51 3.276 3.367 3.276 1.856 0 3.367-1.391 3.367-3.276 0-1.9-1.51-3.276-3.367-3.276zm0 5.262c-1.018 0-1.895-.82-1.895-1.986 0-1.181.877-1.986 1.895-1.986 1.017 0 1.892.805 1.892 1.986 0 1.166-.875 1.986-1.892 1.986zm-8.742-4.258v1.392h3.406c-.1.778-.366 1.35-.774 1.749-.498.481-1.272 1.016-2.632 1.016-2.096 0-3.736-1.652-3.736-3.698 0-2.046 1.64-3.697 3.736-3.697 1.133 0 1.958.432 2.566.993l1.005-.982c-.85-.793-1.983-1.403-3.57-1.403-2.875 0-5.29 2.283-5.29 5.09 0 2.805 2.415 5.088 5.29 5.088 1.553 0 2.72-.497 3.636-1.429.94-.918 1.233-2.208 1.233-3.25 0-.323-.027-.62-.077-.87h-4.793zm35.747 1.08c-.278-.733-1.133-2.084-2.874-2.084-1.726 0-3.163 1.328-3.163 3.276 0 1.836 1.422 3.276 3.328 3.276a3.345 3.345 0 002.797-1.452l-1.144-.744c-.381.545-.901.906-1.653.906-.746 0-1.282-.334-1.625-.993l4.488-1.813-.154-.373zm-4.576 1.09a1.817 1.817 0 011.752-1.91c.586 0 1.083.286 1.249.695l-3.001 1.215zm-3.648 3.179h1.475v-9.63h-1.475v9.63zm-2.417-5.623h-.049c-.331-.384-.964-.73-1.764-.73-1.68 0-3.217 1.44-3.217 3.287 0 1.836 1.536 3.265 3.217 3.265.8 0 1.433-.35 1.764-.744h.05v.47c0 1.252-.686 1.925-1.792 1.925-.901 0-1.46-.635-1.691-1.17l-1.283.523a3.2 3.2 0 002.974 1.938c1.73 0 3.19-.994 3.19-3.412v-5.883h-1.399v.53zm-1.687 4.532c-1.017 0-1.868-.831-1.868-1.975 0-1.155.851-1.997 1.868-1.997 1.002 0 1.792.842 1.792 1.997 0 1.144-.79 1.975-1.792 1.975zm19.235-8.538h-3.529v9.629h1.472v-3.649h2.057c1.634 0 3.237-1.154 3.237-2.99 0-1.836-1.607-2.99-3.237-2.99zm.038 4.641h-2.095v-3.302h2.096a1.69 1.69 0 011.725 1.65 1.7 1.7 0 01-1.725 1.652zm9.096-1.384c-1.063 0-2.168.459-2.623 1.475l1.306.534c.28-.534.798-.708 1.344-.708.763 0 1.537.448 1.55 1.238v.102a3.302 3.302 0 00-1.538-.373c-1.407 0-2.84.756-2.84 2.166 0 1.29 1.152 2.122 2.447 2.122.99 0 1.537-.436 1.88-.944h.05v.744h1.422v-3.693c0-1.707-1.306-2.663-2.998-2.663zm-.177 5.277c-.481 0-1.152-.233-1.152-.816 0-.745.836-1.03 1.56-1.03.648 0 .952.139 1.345.323-.115.891-.901 1.523-1.753 1.523zm8.352-5.066l-1.691 4.174h-.05l-1.75-4.174h-1.586l2.627 5.833-1.499 3.246h1.538l4.048-9.079H98.12zm-13.263 6.16h1.475v-9.628h-1.475v9.629z" fill="#7789B5"/><path d="M8.721 6.742c-.231.237-.366.606-.366 1.084V24.86c0 .477.135.846.366 1.083l.058.052 9.777-9.542v-.225L8.779 6.687l-.058.055z" fill="#7789B5" stroke="#082665"/><path d="M21.81 19.637l-3.255-3.183v-.225l3.26-3.182.072.04 3.86 2.145c1.102.609 1.102 1.61 0 2.223l-3.86 2.14-.077.042z" fill="#7789B5" stroke="#082665"/><path d="M21.888 19.595l-3.333-3.254-9.834 9.603c.366.376.962.42 1.64.045l11.527-6.394z" fill="#7789B5"/><path d="M21.888 13.088L10.362 6.693c-.679-.371-1.275-.326-1.641.05l9.834 9.599 3.333-3.254z" fill="#7789B5"/></svg>