<svg width="106" height="30" fill="none" xmlns="http://www.w3.org/2000/svg"><path d="M104.973 26.961c0 1.356-1.124 2.472-2.537 2.472H3.041C1.628 29.433.5 28.316.5 26.961V3.26C.5 1.905 1.629.784 3.041.784h99.394c1.413 0 2.537 1.12 2.537 2.476l.001 23.701z" stroke="#7789B5"/><path d="M23.21 14.942c-.023-2.482 2.085-3.69 2.181-3.747-1.193-1.697-3.043-1.928-3.694-1.947-1.554-.16-3.061.907-3.853.907-.807 0-2.026-.891-3.34-.865-1.691.025-3.273.98-4.14 2.462-1.79 3.022-.455 7.462 1.26 9.905.858 1.196 1.86 2.532 3.173 2.485 1.284-.052 1.763-.798 3.313-.798 1.535 0 1.985.798 3.323.768 1.378-.022 2.246-1.202 3.074-2.409.991-1.37 1.39-2.721 1.405-2.79-.032-.011-2.676-.995-2.702-3.97zm-2.528-7.301c.69-.842 1.163-1.987 1.032-3.15-1 .044-2.25.675-2.97 1.498-.636.726-1.205 1.915-1.058 3.033 1.123.082 2.276-.552 2.996-1.38zM41.79 23.972h-1.794l-.983-3.011h-3.416l-.936 3.01h-1.747l3.385-10.25h2.09l3.401 10.25zm-3.073-4.275l-.889-2.677c-.094-.273-.27-.917-.53-1.93h-.032c-.103.435-.27 1.08-.499 1.93l-.873 2.677h2.823zm11.777.487c0 1.257-.348 2.25-1.045 2.98-.624.65-1.4.974-2.324.974-.999 0-1.716-.35-2.153-1.05h-.032v3.895h-1.684v-7.97c0-.791-.022-1.602-.063-2.434h1.482l.094 1.171h.031c.562-.882 1.415-1.323 2.559-1.323.894 0 1.64.345 2.238 1.034.599.69.897 1.598.897 2.723zm-1.716.06c0-.72-.166-1.313-.499-1.78-.364-.486-.853-.73-1.466-.73a1.78 1.78 0 00-1.131.403c-.338.27-.56.622-.663 1.058-.052.203-.078.37-.078.5v1.233c0 .538.169.991.507 1.362.338.37.778.555 1.318.555.634 0 1.128-.238 1.481-.714.354-.477.531-1.106.531-1.887zm10.436-.06c0 1.257-.348 2.25-1.046 2.98-.623.65-1.398.974-2.323.974-.999 0-1.716-.35-2.152-1.05h-.032v3.895h-1.684v-7.97c0-.791-.022-1.602-.063-2.434h1.481l.094 1.171h.032c.561-.882 1.413-1.323 2.558-1.323.894 0 1.64.345 2.24 1.034.596.69.895 1.598.895 2.723zm-1.716.06c0-.72-.166-1.313-.5-1.78-.364-.486-.852-.73-1.465-.73a1.78 1.78 0 00-1.132.403 1.86 1.86 0 00-.662 1.058c-.051.203-.078.37-.078.5v1.233c0 .538.169.991.505 1.362.339.37.778.555 1.32.555.634 0 1.128-.238 1.481-.714.354-.477.531-1.106.531-1.887zm11.466.852c0 .872-.31 1.581-.934 2.13-.685.598-1.638.896-2.864.896-1.131 0-2.038-.212-2.725-.638l.39-1.369c.74.436 1.552.655 2.436.655.634 0 1.128-.14 1.483-.42.353-.278.529-.652.529-1.12a1.41 1.41 0 00-.437-1.05c-.29-.284-.774-.548-1.45-.793-1.841-.669-2.761-1.65-2.761-2.939 0-.843.322-1.534.968-2.071.643-.539 1.501-.808 2.574-.808.957 0 1.751.163 2.386.487l-.421 1.339c-.593-.314-1.263-.471-2.013-.471-.592 0-1.055.142-1.387.426-.28.253-.421.562-.421.928 0 .405.16.74.483 1.003.28.244.79.507 1.53.792.904.355 1.568.77 1.996 1.246.426.474.638 1.068.638 1.777zm5.569-3.284h-1.856v3.59c0 .912.327 1.368.982 1.368.301 0 .551-.026.748-.076l.047 1.247c-.332.12-.769.182-1.31.182-.665 0-1.185-.198-1.56-.594-.374-.395-.562-1.06-.562-1.992V17.81h-1.106v-1.233h1.106v-1.353l1.654-.487v1.84h1.857v1.234zm8.377 2.402c0 1.137-.333 2.07-.998 2.799-.698.75-1.624 1.125-2.778 1.125-1.113 0-1.998-.36-2.659-1.079-.66-.72-.99-1.628-.99-2.722 0-1.146.34-2.084 1.02-2.813.681-.73 1.6-1.096 2.754-1.096 1.112 0 2.007.36 2.683 1.08.646.699.968 1.6.968 2.706zm-1.748.053c0-.681-.149-1.266-.451-1.753-.354-.59-.858-.885-1.513-.885-.677 0-1.191.295-1.544.884-.303.489-.452 1.083-.452 1.785 0 .682.15 1.267.452 1.754.364.59.873.884 1.53.884.642 0 1.147-.3 1.512-.9.31-.497.466-1.088.466-1.769zm7.222-2.244a3.002 3.002 0 00-.53-.045c-.593 0-1.051.218-1.374.654-.28.386-.42.872-.42 1.46v3.879h-1.684l.015-5.064c0-.852-.021-1.628-.063-2.327h1.467l.062 1.414h.046a2.53 2.53 0 01.843-1.17c.375-.265.78-.397 1.217-.397.156 0 .297.01.421.03v1.566zm7.533 1.902c0 .294-.02.542-.061.745h-5.053c.02.73.263 1.288.733 1.674.425.344.976.516 1.652.516.749 0 1.431-.116 2.045-.35l.264 1.14c-.717.306-1.564.458-2.542.458-1.175 0-2.098-.338-2.77-1.012-.67-.674-1.005-1.579-1.005-2.714 0-1.115.312-2.043.937-2.784.654-.79 1.538-1.185 2.65-1.185 1.093 0 1.92.395 2.482 1.186.445.627.668 1.404.668 2.326zm-1.606-.426c.011-.487-.099-.907-.327-1.263-.291-.456-.74-.684-1.342-.684-.55 0-.999.222-1.341.669-.28.355-.447.781-.499 1.277h3.51zM38.16 7.414c0 .906-.28 1.589-.836 2.047-.516.423-1.25.635-2.199.635-.47 0-.874-.02-1.21-.06V5.082c.44-.07.913-.105 1.425-.105.905 0 1.587.192 2.046.576.515.433.774 1.054.774 1.86zm-.873.022c0-.588-.16-1.038-.479-1.353-.32-.313-.785-.47-1.4-.47-.26 0-.482.017-.666.052v3.766c.102.016.288.023.56.023.633 0 1.122-.172 1.467-.516.344-.343.518-.844.518-1.502zm5.501.77c0 .559-.163 1.016-.49 1.375-.343.37-.797.553-1.365.553-.547 0-.982-.176-1.306-.53-.324-.354-.486-.8-.486-1.338 0-.562.166-1.023.501-1.382.335-.358.786-.537 1.353-.537.547 0 .986.176 1.319.53.316.343.474.787.474 1.33zm-.858.026a1.61 1.61 0 00-.222-.862c-.174-.29-.422-.434-.743-.434a.834.834 0 00-.76.434c-.148.24-.221.532-.221.877 0 .335.074.622.222.862.179.29.429.435.751.435.316 0 .564-.148.743-.443a1.6 1.6 0 00.23-.869zm7.066-1.812l-1.166 3.632h-.758l-.483-1.577a11.54 11.54 0 01-.3-1.173h-.014c-.072.399-.172.79-.3 1.173l-.512 1.577h-.768L43.6 6.42h.85l.422 1.726c.102.408.185.797.252 1.165h.015c.062-.303.164-.69.308-1.157l.528-1.734h.675l.506 1.697c.123.413.223.812.3 1.195h.022c.056-.373.14-.772.253-1.195l.452-1.697h.813zm4.292 3.632h-.828v-2.08c0-.64-.25-.961-.75-.961a.755.755 0 00-.599.264.924.924 0 00-.23.622v2.154h-.828V7.458c0-.319-.01-.664-.03-1.039h.728l.039.568h.023a1.18 1.18 0 01.429-.438 1.42 1.42 0 01.75-.205c.348 0 .637.11.867.33.286.268.429.67.429 1.203v2.175zm2.283-.001h-.827V4.754h.827v5.297zm4.876-1.845c0 .559-.164 1.016-.491 1.375-.343.37-.798.553-1.364.553-.548 0-.983-.176-1.307-.53-.324-.354-.486-.8-.486-1.338 0-.562.166-1.023.502-1.382.334-.358.785-.537 1.351-.537.548 0 .986.176 1.32.53.316.343.474.787.474 1.33zm-.86.026a1.61 1.61 0 00-.222-.862c-.173-.29-.421-.434-.742-.434a.833.833 0 00-.76.434c-.148.24-.221.532-.221.877 0 .335.074.622.222.862.18.29.429.435.751.435.316 0 .563-.148.742-.443.154-.244.23-.533.23-.869zm4.867 1.82h-.743l-.062-.418h-.023c-.254.333-.617.5-1.088.5-.351 0-.636-.11-.85-.329a1.017 1.017 0 01-.291-.74c0-.443.19-.78.57-1.015.382-.234.917-.35 1.607-.344V7.64c0-.479-.258-.718-.774-.718-.367 0-.69.09-.97.27l-.169-.53c.346-.21.774-.314 1.278-.314.973 0 1.461.5 1.461 1.502v1.337c0 .363.018.652.054.866zm-.86-1.248v-.56c-.913-.015-1.37.229-1.37.732 0 .19.053.331.16.426a.588.588 0 00.404.142.85.85 0 00.506-.168.687.687 0 00.3-.572zm5.563 1.247h-.735l-.039-.583h-.023c-.234.444-.634.666-1.196.666-.448 0-.822-.172-1.118-.516-.297-.343-.444-.79-.444-1.337 0-.588.16-1.064.482-1.427a1.5 1.5 0 011.15-.509c.5 0 .85.165 1.049.493h.016V4.754h.829v4.32c0 .353.01.679.029.977zm-.858-1.531v-.605a.915.915 0 00-.322-.743.827.827 0 00-.554-.199c-.31 0-.551.12-.729.36-.176.239-.265.545-.265.918 0 .36.084.65.254.874a.86.86 0 00.724.359c.272 0 .489-.1.654-.3a.98.98 0 00.238-.664zm7.941-.314c0 .559-.164 1.016-.491 1.375-.343.37-.796.553-1.365.553-.546 0-.98-.176-1.306-.53-.324-.354-.486-.8-.486-1.338 0-.562.166-1.023.502-1.382.335-.358.785-.537 1.353-.537.546 0 .986.176 1.318.53.316.343.475.787.475 1.33zm-.858.026a1.61 1.61 0 00-.223-.862c-.174-.29-.42-.434-.743-.434a.836.836 0 00-.76.434c-.148.24-.221.532-.221.877 0 .335.074.622.222.862.18.29.429.435.751.435.316 0 .565-.148.744-.443a1.61 1.61 0 00.23-.869zm5.31 1.82h-.828v-2.08c0-.64-.25-.961-.751-.961a.753.753 0 00-.597.264.92.92 0 00-.23.622v2.154h-.829V7.458c0-.319-.01-.664-.03-1.039h.728l.038.568h.023c.097-.176.241-.322.43-.438a1.43 1.43 0 01.75-.205c.347 0 .636.11.867.33.286.268.428.67.428 1.203v2.175zm5.57-3.028h-.911v1.764c0 .449.162.673.482.673.149 0 .272-.012.37-.038l.02.613a1.9 1.9 0 01-.642.09c-.328 0-.582-.097-.766-.291-.185-.195-.276-.521-.276-.98v-1.83h-.545V6.42h.544v-.666l.812-.239v.904h.912v.605zm4.385 3.027h-.83V7.987c0-.65-.249-.977-.749-.977-.384 0-.646.189-.79.566a.99.99 0 00-.039.29v2.185h-.827V4.754h.827v2.188h.016c.26-.398.635-.597 1.119-.597.343 0 .626.11.852.33.28.273.42.68.42 1.217v2.16zm4.522-1.987c0 .145-.011.267-.031.366h-2.483c.01.359.13.632.36.822.21.17.48.254.812.254.367 0 .702-.057 1.004-.172l.13.561c-.353.15-.769.224-1.25.224-.577 0-1.031-.165-1.36-.497-.33-.33-.494-.775-.494-1.333 0-.548.153-1.004.46-1.367.321-.388.755-.583 1.302-.583.536 0 .943.195 1.218.583.222.308.332.69.332 1.142zm-.79-.209a1.066 1.066 0 00-.16-.62c-.145-.224-.363-.336-.66-.336-.27 0-.49.109-.659.329a1.204 1.204 0 00-.245.627h1.724z" fill="#7789B5"/></svg>