<svg width="63" height="40" fill="none" xmlns="http://www.w3.org/2000/svg"><path d="M7.387 33.361c0 .645-.067 1.164-.202 1.559-.134.394-.384.779-.75 1.154-.587.587-1.38.88-2.38.88-1.03 0-1.843-.298-2.439-.894a2.714 2.714 0 01-.548-.78 3.176 3.176 0 01-.26-.75 18.33 18.33 0 01-.087-.793h2.367c.077.721.399 1.082.966 1.082.27 0 .491-.087.664-.26.202-.202.303-.601.303-1.197 0-.54-.082-.914-.245-1.126-.164-.221-.404-.332-.722-.332a1.2 1.2 0 00-.432.072.781.781 0 00-.289.202 1.096 1.096 0 00-.144.231 3.178 3.178 0 00-.101.231H.909v-6.046h6.262v2.136H3.059v1.587c.346-.27.808-.404 1.385-.404.846 0 1.51.24 1.991.721.385.385.64.794.765 1.227.125.433.187.933.187 1.5zm7.946.39c0 1.01-.322 1.799-.967 2.366-.644.558-1.424.837-2.337.837-.914 0-1.693-.279-2.338-.837-.644-.567-.967-1.356-.967-2.366v-4.04c0-1.01.323-1.794.967-2.352.645-.567 1.424-.851 2.338-.851.913 0 1.693.284 2.337.851.645.558.967 1.342.967 2.352v4.04zm-2.367.015V29.71c0-.346-.09-.61-.274-.793a.874.874 0 00-.663-.275.921.921 0 00-.678.274c-.174.183-.26.448-.26.794v4.055c0 .346.086.61.26.793.182.173.408.26.678.26.269 0 .49-.087.663-.26.183-.183.274-.447.274-.793zm8.508-.044h-4.732V31.5h4.732v2.222zm8.092-.36c0 .644-.068 1.163-.202 1.558-.135.394-.385.779-.75 1.154-.587.587-1.38.88-2.381.88-1.03 0-1.842-.298-2.439-.894a2.734 2.734 0 01-.548-.78 3.177 3.177 0 01-.26-.75 18.344 18.344 0 01-.086-.793h2.366c.077.721.4 1.082.967 1.082a.9.9 0 00.663-.26c.203-.202.303-.601.303-1.197 0-.54-.081-.914-.245-1.126-.163-.221-.404-.332-.721-.332a1.2 1.2 0 00-.433.072.782.782 0 00-.289.202 1.094 1.094 0 00-.144.231 3.126 3.126 0 00-.1.231h-2.18v-6.046h6.262v2.136h-4.112v1.587c.347-.27.808-.404 1.385-.404.847 0 1.51.24 1.991.721.385.385.64.794.765 1.227.125.433.188.933.188 1.5zm7.945.39c0 1.01-.322 1.798-.967 2.365-.644.558-1.423.837-2.337.837-.914 0-1.693-.279-2.338-.837-.644-.567-.966-1.356-.966-2.366v-4.04c0-1.01.322-1.794.966-2.352.645-.567 1.424-.851 2.338-.851.914 0 1.693.284 2.337.851.645.558.967 1.342.967 2.352v4.04zm-2.366.014V29.71c0-.346-.092-.61-.274-.793a.874.874 0 00-.664-.275.921.921 0 00-.678.274c-.173.183-.26.448-.26.794v4.055c0 .346.087.61.26.793a.95.95 0 00.678.26.9.9 0 00.664-.26c.182-.183.274-.447.274-.793zm8.508-.044H38.92V31.5h4.733v2.222zm8.091-.36c0 .644-.067 1.163-.202 1.558-.135.394-.385.779-.75 1.154-.587.587-1.38.88-2.38.88-1.03 0-1.843-.298-2.44-.894a2.734 2.734 0 01-.548-.78 3.176 3.176 0 01-.26-.75 18.324 18.324 0 01-.086-.793h2.366c.077.721.4 1.082.967 1.082a.9.9 0 00.664-.26c.202-.202.303-.601.303-1.197 0-.54-.082-.914-.245-1.126-.164-.221-.405-.332-.722-.332a1.2 1.2 0 00-.433.072.78.78 0 00-.288.202 1.095 1.095 0 00-.145.231 3.169 3.169 0 00-.1.231h-2.18v-6.046h6.263v2.136h-4.112v1.587c.346-.27.808-.404 1.385-.404.846 0 1.51.24 1.99.721.386.385.64.794.766 1.227.125.433.187.933.187 1.5zm7.945.39c0 1.01-.322 1.798-.966 2.365-.645.558-1.424.837-2.338.837-.913 0-1.693-.279-2.337-.837-.645-.567-.967-1.356-.967-2.366v-4.04c0-1.01.322-1.794.967-2.352.644-.567 1.423-.851 2.337-.851.914 0 1.693.284 2.338.851.644.558.966 1.342.966 2.352v4.04zm-2.366.014V29.71c0-.346-.091-.61-.274-.793a.874.874 0 00-.664-.275.921.921 0 00-.678.274c-.173.183-.26.448-.26.794v4.055c0 .346.087.61.26.793a.95.95 0 00.678.26.9.9 0 00.664-.26c.183-.183.274-.447.274-.793z" fill="#004EA1"/><path d="M6.145 10H4.423l-.31-.997H2.05L1.722 10H0l2.437-6.7h1.27L6.146 10zM3.679 7.629L3.115 5.84l-.603 1.788H3.68zm8.152.404c0 .596-.191 1.073-.574 1.43-.376.358-.881.537-1.515.537H6.825V3.3h2.776c.653 0 1.17.17 1.553.508.389.339.583.797.583 1.374 0 .565-.244 1.026-.734 1.383.295.189.505.396.63.621.133.226.198.509.198.847zm-1.9-2.305a.53.53 0 00.16-.405.5.5 0 00-.16-.395c-.1-.1-.245-.15-.433-.15H8.472v1.091h1.026c.188 0 .332-.047.433-.141zm.094 2.635a.585.585 0 00.16-.433c0-.182-.054-.323-.16-.424-.107-.106-.254-.16-.443-.16h-1.11v1.177h1.11c.189 0 .336-.054.443-.16zM18.348 10h-1.722l-.31-.997h-2.061l-.33.997h-1.722l2.438-6.7h1.27l2.437 6.7zm-2.465-2.371l-.565-1.788-.602 1.788h1.167zm7.474-3.689c.408.42.612.925.612 1.515a2.13 2.13 0 01-.612 1.524c-.407.42-.966.63-1.675.63h-1.006V10h-1.647V3.3h2.653c.71 0 1.268.213 1.675.64zm-1.232 1.995a.674.674 0 000-.95.683.683 0 00-.518-.208h-.931v1.356h.931a.7.7 0 00.518-.198zM30.115 10h-1.647V6.349L26.322 10h-1.44V3.3h1.647v3.651l2.146-3.65h1.44V10zm5.61-8.45c-.007.345-.098.63-.273.856-.176.226-.377.38-.603.461a2.339 2.339 0 01-.743.113 2.34 2.34 0 01-.743-.113 1.347 1.347 0 01-.603-.46c-.175-.227-.266-.512-.273-.857h1.12c.02.332.185.499.499.499s.48-.167.499-.5h1.12zm.978 8.45h-1.647V6.349L32.911 10h-1.44V3.3h1.647v3.651l2.145-3.65h1.44V10zm6.4 0h-1.646V7.346h-1.75V10H38.06V3.3h1.647v2.578h1.75V3.3h1.647V10zm8.56 0h-1.646V3.3h1.647V10zm-2.888-3.698c.414.401.621.916.621 1.543 0 .627-.21 1.145-.63 1.553-.414.401-.95.602-1.61.602h-2.7V3.3h1.647v2.39h1.053c.666 0 1.205.204 1.62.612zm-1.233 2.032a.65.65 0 00.207-.489.62.62 0 00-.207-.48.688.688 0 00-.508-.197h-.931v1.364h.931a.688.688 0 00.508-.198zm9.732-6.784c-.007.345-.098.63-.273.856-.176.226-.377.38-.602.461a2.339 2.339 0 01-.744.113c-.27 0-.517-.037-.743-.113a1.346 1.346 0 01-.602-.46c-.176-.227-.267-.512-.273-.857h1.12c.018.332.185.499.498.499.314 0 .48-.167.499-.5h1.12zm.978 8.45h-1.646V6.349L54.46 10h-1.44V3.3h1.647v3.651l2.146-3.65h1.44V10zM2.79 22H.813v-8.04h1.976V22zm4.709 0H5.172L2.8 17.777l2.168-3.817h2.27l-2.371 3.738L7.497 22zm6.32-5.002c.016.218.023.545.023.982 0 .437-.007.764-.022.982a7.345 7.345 0 01-.08.79 2.447 2.447 0 01-.248.803c-.12.226-.278.436-.474.632-.587.587-1.332.88-2.236.88-.903 0-1.648-.293-2.236-.88a2.672 2.672 0 01-.474-.632 2.447 2.447 0 01-.248-.802 10.65 10.65 0 01-.09-.79 31.165 31.165 0 01-.012-.983c0-.437.004-.764.011-.982.015-.219.046-.482.09-.79a2.44 2.44 0 01.25-.802 2.68 2.68 0 01.473-.633c.588-.587 1.333-.88 2.236-.88.903 0 1.649.293 2.236.88.196.196.354.407.474.633.12.225.204.493.249.801.045.309.071.572.079.79zm-2.02 2.371c.045-.248.067-.711.067-1.389s-.022-1.14-.068-1.389c-.045-.256-.12-.451-.225-.587-.181-.233-.444-.35-.79-.35-.347 0-.61.117-.791.35-.106.136-.18.331-.226.587-.045.249-.068.711-.068 1.39 0 .677.023 1.14.068 1.388.045.248.12.44.226.576.18.24.444.361.79.361.346 0 .61-.12.79-.361.106-.136.181-.328.226-.576zM22.7 22h-1.976v-3.85l-1.14 1.987H18.32l-1.14-1.988V22h-1.976v-8.04h1.942l1.807 3.546 1.806-3.546h1.942V22zm7.9 0h-1.976v-4.381L26.051 22h-1.728v-8.04H26.3v4.381l2.575-4.38h1.728V22zm7.467-2.552c-.143.858-.49 1.51-1.04 1.953-.541.445-1.207.667-1.998.667-.903 0-1.648-.294-2.236-.881a2.675 2.675 0 01-.474-.632 2.45 2.45 0 01-.248-.802 10.6 10.6 0 01-.09-.79 30.943 30.943 0 01-.012-.983c0-.437.004-.764.011-.982.015-.219.045-.482.09-.79a2.45 2.45 0 01.25-.802 2.68 2.68 0 01.473-.633c.588-.587 1.333-.88 2.236-.88.79 0 1.457.221 1.999.666.55.444.896 1.095 1.039 1.953h-2.01c-.158-.572-.5-.858-1.028-.858-.346 0-.606.113-.779.339-.105.135-.184.335-.237.598-.045.256-.068.72-.068 1.39 0 .67.023 1.136.068 1.4.053.255.132.45.237.586.173.226.433.34.78.34.526 0 .869-.287 1.027-.859h2.01zm6.88 0c-.142.858-.489 1.51-1.038 1.953-.542.445-1.208.667-1.999.667-.903 0-1.648-.294-2.236-.881a2.671 2.671 0 01-.474-.632 2.447 2.447 0 01-.248-.802 10.654 10.654 0 01-.09-.79 31.252 31.252 0 01-.012-.983c0-.437.004-.764.011-.982.015-.219.046-.482.09-.79a2.44 2.44 0 01.25-.802 2.68 2.68 0 01.473-.633c.588-.587 1.333-.88 2.236-.88.79 0 1.457.221 1.999.666.55.444.896 1.095 1.039 1.953h-2.01c-.158-.572-.5-.858-1.028-.858-.346 0-.606.113-.779.339-.105.135-.184.335-.237.598-.045.256-.068.72-.068 1.39 0 .67.023 1.136.068 1.4.053.255.132.45.237.586.173.226.433.34.78.34.526 0 .869-.287 1.027-.859h2.01zM52.443 22h-2.066l-.373-1.197H47.53L47.135 22h-2.066l2.924-8.04h1.525L52.442 22zm-2.958-2.846l-.678-2.145-.722 2.145h1.4zm8.97-4.426c.488.504.733 1.11.733 1.818s-.245 1.317-.734 1.83c-.49.504-1.16.756-2.01.756h-1.208V22H53.26v-8.04h3.184c.85 0 1.52.256 2.01.768zm-1.48 2.394a.809.809 0 00.237-.576.771.771 0 00-.237-.565.82.82 0 00-.621-.248h-1.118v1.626h1.118c.256 0 .463-.079.62-.237z" fill="#FF5600"/></svg>