<svg width="20" height="20" fill="none" xmlns="http://www.w3.org/2000/svg"><path d="M10.818.836a.834.834 0 01.835-.835A8.356 8.356 0 0120 8.348a.834.834 0 11-1.67 0 6.685 6.685 0 00-6.677-6.677.835.835 0 01-.835-.835zm.835 4.173a3.339 3.339 0 013.339 3.34.835.835 0 001.67 0 5.013 5.013 0 00-5.009-5.009.835.835 0 100 1.67zm7.59 8.964a2.588 2.588 0 010 3.655l-.76.875C11.647 25.048-4.988 8.417 1.456 1.56l.96-.835a2.572 2.572 0 013.611.034C6.053.783 7.6 2.793 7.6 2.793a2.588 2.588 0 01-.006 3.574l-.967 1.215a10.668 10.668 0 005.786 5.797l1.223-.973a2.588 2.588 0 013.573-.005s2.008 1.546 2.034 1.572zm-1.149 1.214s-1.997-1.537-2.023-1.563a.918.918 0 00-1.293 0 382.89 382.89 0 01-1.706 1.365.834.834 0 01-.817.127 12.527 12.527 0 01-7.363-7.352.835.835 0 01.121-.835s1.341-1.684 1.364-1.706a.918.918 0 000-1.293 420.32 420.32 0 01-1.563-2.024.918.918 0 00-1.26.033l-.96.834c-4.71 5.663 9.707 19.28 14.669 14.59l.76-.877a.935.935 0 00.071-1.3z" fill="#1D5DEB"/></svg>