<svg width="20" height="20" fill="none" xmlns="http://www.w3.org/2000/svg"><path d="M19.267 7.544l-6.32-6.325a4.172 4.172 0 00-5.894 0L.733 7.544A2.483 2.483 0 000 9.313v8.185A2.502 2.502 0 002.5 20h15a2.5 2.5 0 002.5-2.502V9.313a2.484 2.484 0 00-.733-1.769zM12.5 18.332h-5v-3.28A2.502 2.502 0 0110 12.55a2.5 2.5 0 012.5 2.502v3.28zm5.833-.834a.834.834 0 01-.833.834h-3.333v-3.28A4.17 4.17 0 0010 10.882a4.165 4.165 0 00-4.167 4.17v3.28H2.5a.833.833 0 01-.833-.834V9.313a.84.84 0 01.244-.59L8.23 2.4a2.506 2.506 0 013.537 0l6.321 6.326a.84.84 0 01.244.587v8.185z" fill="#1D5DEB"/></svg>