<svg width="17" height="22" fill="none" xmlns="http://www.w3.org/2000/svg"><path d="M8.5 11a5.79 5.79 0 003.148-.927 5.539 5.539 0 002.087-2.468 5.35 5.35 0 00.323-3.178 5.452 5.452 0 00-1.551-2.816A5.722 5.722 0 009.606.106 5.826 5.826 0 006.33.419a5.634 5.634 0 00-2.543 2.025A5.386 5.386 0 002.833 5.5a5.425 5.425 0 001.662 3.887A5.76 5.76 0 008.5 11zm0-9.167a3.86 3.86 0 012.099.618 3.692 3.692 0 011.391 1.646c.286.67.361 1.407.215 2.118a3.635 3.635 0 01-1.034 1.878 3.814 3.814 0 01-1.934 1.003 3.884 3.884 0 01-2.183-.208 3.756 3.756 0 01-1.695-1.35A3.59 3.59 0 014.722 5.5c0-.972.398-1.905 1.107-2.593A3.837 3.837 0 018.5 1.833zm0 11a8.642 8.642 0 00-6.008 2.42A8.138 8.138 0 000 21.082c0 .243.1.477.277.649A.96.96 0 00.944 22a.96.96 0 00.668-.268.903.903 0 00.277-.649c0-1.701.696-3.334 1.936-4.537a6.714 6.714 0 014.675-1.88c1.753 0 3.435.677 4.675 1.88a6.322 6.322 0 011.936 4.537c0 .243.1.477.277.649a.96.96 0 00.668.268.96.96 0 00.667-.268.903.903 0 00.277-.649 8.138 8.138 0 00-2.492-5.83 8.642 8.642 0 00-6.008-2.42z" fill="#1D5DEB"/></svg>