<svg width="18" height="22" fill="none" xmlns="http://www.w3.org/2000/svg"><path d="M8.1 13.292v-3.209c0-.243.095-.476.264-.648a.892.892 0 011.272 0 .925.925 0 01.264.648v3.209a.925.925 0 01-.264.648.891.891 0 01-1.272 0 .925.925 0 01-.264-.648zm.9 2.291a1.33 1.33 0 00-.955.403 1.377 1.377 0 00-.395.973 1.398 1.398 0 00.396.973 1.348 1.348 0 00.955.402c.358 0 .701-.145.955-.403a1.39 1.39 0 00.395-.973 1.39 1.39 0 00-.396-.972A1.338 1.338 0 009 15.583zm9-5.972v7.806C18 19.944 15.981 22 13.5 22h-9C2.019 22 0 19.944 0 17.417V4.583C0 2.056 2.019 0 4.5 0h4.063c1.683 0 3.265.667 4.455 1.88l3.137 3.194a6.384 6.384 0 011.369 2.08c.316.78.478 1.614.476 2.457zm-6.255-6.436a4.538 4.538 0 00-.945-.738v3.98a.91.91 0 00.9.916h3.907a4.581 4.581 0 00-.725-.962l-3.136-3.195h-.001zM16.2 9.611c0-.15-.007-.298-.02-.444H11.7c-1.489 0-2.7-1.234-2.7-2.75V1.854a4.594 4.594 0 00-.437-.02H4.5c-1.489 0-2.7 1.233-2.7 2.75v12.833c0 1.516 1.211 2.75 2.7 2.75h9c1.489 0 2.7-1.234 2.7-2.75V9.61z" fill="#1D5DEB"/></svg>