<svg width="17" height="23" fill="none" xmlns="http://www.w3.org/2000/svg"><path d="M16.171 22.97c-.58.044-.994-.347-1.053-.831-.244-1.98-1.126-3.997-2.145-4.905l-3.754 4.45c-.36.426-1.077.426-1.436 0L3.987 17.18c-.977.962-1.86 2.979-2.103 4.959a.967.967 0 01-.351.652.938.938 0 01-1.504-.511.97.97 0 01-.019-.379c.232-1.884 1.097-4.612 2.772-6.105a1.885 1.885 0 012.591.085l3.128 3.708 3.078-3.652c.755-.77 1.894-.81 2.641-.14 1.675 1.493 2.54 4.221 2.773 6.105.064.525-.3 1.03-.82 1.069l-.002-.001zM.947 3.495c0-.935.612-1.756 1.498-2.012L6.897.2a6.516 6.516 0 013.207 0l4.452 1.283c.4.116.756.35 1.021.675a2.117 2.117 0 01.217 2.352 2.077 2.077 0 01-.88.855l-.748.38v1.914c0 3.168-2.541 5.745-5.665 5.745-3.125 0-5.666-2.577-5.666-5.745V5.745l-.748-.38a2.073 2.073 0 01-.832-.77 2.113 2.113 0 01-.308-1.1zm11.33 3.796c-.921.197-2.18.368-3.776.368-1.597 0-2.856-.171-3.777-.368v.368c0 2.112 1.694 3.83 3.777 3.83s3.776-1.718 3.776-3.83v-.368zM6.612 3.892c0 1.274 1.466 2.117 1.89 2.331.422-.172 1.887-.882 1.887-2.331V2.504a.429.429 0 00-.287-.403L8.5 1.563 6.899 2.1a.418.418 0 00-.287.403v1.388z" fill="#1D5DEB"/></svg>