<svg width="20" height="26" fill="none" xmlns="http://www.w3.org/2000/svg"><path d="M14 19h-4a1 1 0 010-2h4a1 1 0 010 2zm5 1V8c0-2.757-2.243-5-5-5h-.171A3.006 3.006 0 0011 1H9a3.006 3.006 0 00-2.829 2H6C3.243 3 1 5.243 1 8v12c0 2.757 2.243 5 5 5h8c2.757 0 5-2.243 5-5zM7 5a1 1 0 001-1 1 1 0 011-1h2c.551 0 1 .448 1 1a1 1 0 001 1h1c1.654 0 3 1.346 3 3v12c0 1.654-1.346 3-3 3H6c-1.654 0-3-1.346-3-3V8c0-1.654 1.346-3 3-3h1zM6 17a1 1 0 100 2 1 1 0 000-2zm9-3a1 1 0 00-1-1h-4a1 1 0 000 2h4a1 1 0 001-1zm-9-1a1 1 0 100 2 1 1 0 000-2zm9-3a1 1 0 00-1-1h-4a1 1 0 000 2h4a1 1 0 001-1zM6 9a1 1 0 100 2 1 1 0 000-2z" fill="#1D5DEB" stroke="#fff" stroke-width=".3"/></svg>