<svg width="20" height="18" fill="none" xmlns="http://www.w3.org/2000/svg"><path d="M20 6.11c0-.327-.132-.64-.366-.87a1.26 1.26 0 00-.884-.36s-.487 0-.52.006a24.336 24.336 0 00-2.136-3.247A3.239 3.239 0 0014.446.526c-1.468-.701-7.424-.701-8.892 0a3.238 3.238 0 00-1.648 1.113A24.323 24.323 0 001.77 4.886c-.034-.007-.521-.007-.521-.007-.332 0-.65.13-.884.36A1.22 1.22 0 000 6.11v5.33c0 .576.154 1.142.447 1.64a3.29 3.29 0 001.22 1.2v1.26c0 .653.263 1.28.732 1.74a2.52 2.52 0 001.768.72 2.52 2.52 0 001.767-.72 2.44 2.44 0 00.733-1.74v-.82h6.666v.82c0 .652.264 1.278.733 1.74a2.52 2.52 0 001.767.72 2.52 2.52 0 001.768-.72 2.44 2.44 0 00.732-1.74v-1.26a3.308 3.308 0 001.22-1.2A3.24 3.24 0 0020 11.44V6.11zM5.228 2.636c.204-.259.486-.448.806-.54 1.266-.616 6.667-.616 7.932 0 .32.092.602.281.806.54a23.378 23.378 0 013.1 5.322 55.395 55.395 0 00-15.744 0 23.42 23.42 0 013.1-5.322zM5 15.54a.813.813 0 01-.244.58.84.84 0 01-1.179 0 .813.813 0 01-.244-.58v-.82H5v.82zm11.667 0a.813.813 0 01-.244.58.84.84 0 01-1.179 0 .813.813 0 01-.244-.58v-.82h1.667v.82zm0-2.46H3.333a1.68 1.68 0 01-1.178-.48 1.627 1.627 0 01-.488-1.16V9.682A64.21 64.21 0 0110 8.98c2.79.053 5.574.288 8.333.703v1.758c0 .435-.175.852-.488 1.16a1.68 1.68 0 01-1.178.48zM5 11.44a.814.814 0 01-.244.58.84.84 0 01-1.179 0 .814.814 0 010-1.16.84.84 0 011.179 0 .813.813 0 01.244.58zm11.667 0a.814.814 0 01-.244.58.84.84 0 01-1.179 0 .814.814 0 010-1.16.84.84 0 011.179 0 .813.813 0 01.244.58z" fill="#1D5DEB"/></svg>