<svg width="20" height="21" fill="none" xmlns="http://www.w3.org/2000/svg"><path d="M20 17.5a2.62 2.62 0 01-2.609 2.625V21h-1.739v-.875a2.62 2.62 0 01-2.608-2.625h1.739c0 .482.39.875.87.875h1.738c.48 0 .87-.393.87-.875a.675.675 0 00-.56-.665l-2.645-.444a2.398 2.398 0 01-1.444-.822A2.424 2.424 0 0113.043 14a2.62 2.62 0 012.61-2.625V10.5h1.738v.875A2.62 2.62 0 0120 14h-1.74a.873.873 0 00-.869-.875h-1.739c-.48 0-.87.393-.87.875 0 .33.236.61.56.665l2.645.444a2.398 2.398 0 011.444.822c.369.438.57.995.569 1.569zm-8.608-4.375a4.358 4.358 0 01.804-1.75H3.478V17.5h7.826v-1.75H5.217v-2.625h6.175zm-7.914-3.5h4.348v-1.75H3.478v1.75zm4.348-5.25H3.478v1.75h4.348v-1.75zM13.07 21H0V2.625A2.62 2.62 0 012.609 0h8.186l6.596 6.638V8.75h-1.739v-.875H9.565V1.75H2.61c-.48 0-.87.393-.87.875V19.25h9.934A4.388 4.388 0 0013.07 21zM11.304 6.125h3.119l-3.119-3.138v3.138z" fill="#1D5DEB"/></svg>