<svg width="19" height="19" fill="none" xmlns="http://www.w3.org/2000/svg"><path d="M17.77 8.68a.774.774 0 01-.774-.773 6.18 6.18 0 00-1.815-4.368 6.201 6.201 0 00-4.375-1.812.774.774 0 01-.774-.772.772.772 0 01.774-.773 7.753 7.753 0 015.468 2.265 7.726 7.726 0 012.269 5.46.772.772 0 01-.774.772zm-2.322-.773a4.63 4.63 0 00-1.36-3.277 4.647 4.647 0 00-3.282-1.358.774.774 0 00-.774.773.772.772 0 00.774.772 3.089 3.089 0 013.094 3.09.772.772 0 00.774.772.774.774 0 00.774-.772zm1.69 9.396l.703-.81a2.393 2.393 0 000-3.381 442.095 442.095 0 00-1.885-1.454 2.4 2.4 0 00-3.313.005l-1.475 1.24A9.893 9.893 0 015.805 7.54l1.238-1.467a2.392 2.392 0 00.005-3.308S5.614.908 5.59.884A2.387 2.387 0 002.243.848l-.89.773c-5.256 6.088 6.064 17.302 12.363 17.1a4.768 4.768 0 003.421-1.418z" fill="#fff"/></svg>