<svg width="31" height="31" fill="none" xmlns="http://www.w3.org/2000/svg"><path d="M.549 15.225c0 8.409 6.816 15.226 15.225 15.226C24.183 30.45 31 23.634 31 15.225 31 6.817 24.183 0 15.774 0S.55 6.817.55 15.225z" fill="#08C"/><path d="M8.256 14.948c4.087-1.78 6.812-2.955 8.175-3.522 3.894-1.62 4.703-1.9 5.23-1.91.116-.002.375.027.543.163a.59.59 0 01.2.38c.019.109.042.357.023.552-.21 2.216-1.123 7.596-1.588 10.079-.196 1.05-.583 1.403-.958 1.437-.814.075-1.432-.538-2.22-1.055-1.235-.808-1.932-1.312-3.13-2.101-1.384-.912-.487-1.414.302-2.233.207-.214 3.794-3.477 3.863-3.773.009-.037.017-.175-.065-.248-.082-.073-.203-.048-.29-.028-.124.028-2.095 1.33-5.914 3.908-.56.385-1.066.572-1.52.562-.5-.01-1.463-.283-2.18-.516-.877-.285-1.575-.436-1.514-.92.031-.253.379-.511 1.043-.775z" fill="#fff"/></svg>