<svg width="31" height="31" fill="none" xmlns="http://www.w3.org/2000/svg"><path d="M30.45 15.225C30.45 6.817 23.635 0 15.226 0 6.817 0 0 6.817 0 15.225c0 8.409 6.817 15.226 15.225 15.226 8.409 0 15.226-6.817 15.226-15.226z" fill="#07F"/><path d="M15.986 20.935c-5.852 0-9.189-3.922-9.326-10.46h2.943c.094 4.795 2.25 6.823 3.962 7.242v-7.241h2.763v4.131c1.686-.175 3.465-2.061 4.064-4.14h2.755a7.904 7.904 0 01-1.318 2.994 8.087 8.087 0 01-2.43 2.228 8.416 8.416 0 012.77 2.162 8.211 8.211 0 011.62 3.084H20.75c-.65-1.986-2.276-3.528-4.423-3.738v3.738h-.342z" fill="#fff"/></svg>